<svg width="28" height="28" viewBox="0 0 28 28" fill="none" xmlns="http://www.w3.org/2000/svg">
<path d="M4 0.5H24C25.933 0.5 27.5 2.067 27.5 4V24C27.5 25.933 25.933 27.5 24 27.5H4C2.067 27.5 0.5 25.933 0.5 24V4C0.5 2.067 2.067 0.5 4 0.5Z" fill="#01A6E6"/>
<path d="M4 0.5H24C25.933 0.5 27.5 2.067 27.5 4V24C27.5 25.933 25.933 27.5 24 27.5H4C2.067 27.5 0.5 25.933 0.5 24V4C0.5 2.067 2.067 0.5 4 0.5Z" stroke="#EBECEF"/>
<path fill-rule="evenodd" clip-rule="evenodd" d="M21.7782 13.9998C21.7782 18.2949 18.2961 21.7778 13.9996 21.7778C9.70477 21.7778 6.22266 18.2949 6.22266 13.9998C6.22266 9.70421 9.70477 6.22228 13.9996 6.22228C18.2961 6.22228 21.7782 9.70421 21.7782 13.9998Z" fill="#01A6E6"/>
<path fill-rule="evenodd" clip-rule="evenodd" d="M19.4159 11.2876C19.4159 11.2876 19.8023 11.2596 19.3771 10.8241C19.3771 10.8241 18.6702 10.058 17.3142 9.47801C16.5874 9.16698 15.7702 9.29648 15.8466 10.0483C15.9004 10.5763 15.3681 10.7781 14.9491 10.7297C14.4572 10.6728 14.1617 10.3002 14.2395 9.99339C14.3227 9.66624 14.5093 9.41258 14.7855 9.21571C14.9728 9.08204 15.1035 8.98778 15.4449 8.92235C15.6523 8.88255 15.9243 8.82061 15.997 9.03845C16.1395 8.96885 16.3921 8.53162 15.5713 8.52375C15.5713 8.52375 15.4485 8.27835 15.1725 8.3295C15.1725 8.3295 14.3559 7.58939 13.4479 8.50589C13.4479 8.50589 13.0915 8.63617 13.0719 8.51036C13.1527 8.56948 13.2844 8.39008 13.1044 8.32834C13.0199 8.29912 12.9215 8.38115 12.9062 8.46065C12.894 8.5222 12.9133 8.65743 13.0933 8.68335C13.1407 8.69014 13.2263 8.68335 13.2263 8.68335L13.1667 8.74839C12.8954 8.85605 12.6314 8.77266 12.5823 8.59404C12.6458 8.62811 12.715 8.58569 12.7372 8.51997C12.7596 8.45366 12.7075 8.36144 12.602 8.34727C12.4549 8.32698 12.385 8.4857 12.4165 8.6252C12.4647 8.83974 12.6985 8.99244 12.9975 8.95555L12.9456 9.02768C12.9456 9.02768 12.6459 9.37501 12.4011 9.76963C12.1521 10.1706 11.1379 10.6127 11.3115 9.6578C11.3668 9.35424 10.819 8.9903 9.86746 9.59586C9.35917 9.91952 8.73508 10.4047 8.27317 11.1903C8.27317 11.1903 8.06533 11.4907 8.40688 11.5001C8.40688 11.5001 7.6261 12.2764 7.71854 13.2007C7.71854 13.2007 7.78806 13.4548 7.97284 13.2933C7.97284 13.2933 7.67251 14.1018 7.85727 14.7951C7.85727 14.7951 7.94967 15.188 8.18084 14.9799C8.18084 14.9799 8.38788 15.9612 8.82753 16.7822C9.17428 17.4293 9.8212 18.3768 9.56713 18.608C9.31526 18.8367 8.95972 18.3811 9.01532 18.5647C9.13287 18.9528 9.5641 19.0097 9.79799 18.8389C10.399 18.3999 9.51397 17.342 9.24367 15.9968C9.24367 15.9968 9.4283 15.9736 9.35326 15.5372C9.35326 15.5372 9.79799 15.6962 9.7201 14.8226C9.7201 14.8226 10.1909 15.0725 10.1909 14.4717C10.1909 14.4717 10.676 14.5871 10.7684 13.9401C10.7684 13.9401 11.5602 14.0551 11.7389 13.6166C11.7389 13.6166 11.9468 13.8708 12.3366 13.4637C12.4333 13.7417 12.6301 13.9924 12.8877 14.2045C12.8877 14.2045 12.8364 14.5951 12.3727 14.7305C12.3727 14.7305 11.8058 14.5077 11.1937 14.7305C10.6294 14.9354 10.8562 15.4977 11.2658 15.3632C11.1416 15.3012 11.1055 15.1153 11.3061 15.0753C11.5064 15.2277 11.723 15.1395 11.8273 15.0033C11.8273 15.0033 12.2286 15.2838 12.4933 14.9952C12.6215 15.0031 12.7012 15.1834 12.5251 15.2677C12.8673 15.3364 12.9905 15.0033 12.849 14.8226C12.849 14.8226 12.9291 14.7742 13.0199 14.7041C13.0199 14.7041 13.1269 14.6074 13.2072 14.4942C13.2072 14.4942 13.5441 14.7409 14.1684 14.8793C14.1684 14.8793 13.8423 15.3799 13.3595 15.4764C13.3595 15.4764 12.6743 15.2695 12.2119 15.5372C12.2119 15.5372 11.9629 15.6576 12.0016 15.913C12.0306 16.1047 12.1951 16.2384 12.4429 16.2073C12.3423 16.1611 12.1198 15.929 12.4026 15.8293C12.5894 16.1022 13.0857 15.9055 13.1387 15.8273C13.2337 15.9235 13.6495 15.8845 13.7048 15.7406C13.8379 15.7185 14.0318 15.7793 13.9598 16.0176C14.1208 15.9957 14.3811 15.7239 13.9986 15.5079C13.9986 15.5079 14.2258 15.4042 14.4078 15.2533L14.6838 14.9964C14.6838 14.9964 15.0141 14.8712 15.0083 15.2506C15.2667 15.2201 15.481 15.4398 15.429 15.6809C15.429 15.6809 15.317 15.9569 14.9157 15.8852C14.5146 15.8133 14.522 16.1365 14.8191 16.1555C14.6227 16.2104 14.4905 16.5594 15.1474 16.5609C15.1474 16.5609 15.2924 17.3536 14.4103 17.2735C14.3058 17.2493 14.3219 17.153 14.334 17.0768C14.4781 17.0287 14.4944 16.8844 14.4263 16.816C14.353 16.7431 14.1924 16.7064 14.0695 16.8361C13.9935 16.9165 13.966 17.073 13.9896 17.2298C13.8453 17.1907 13.7684 17.1303 13.7684 17.0165C13.9369 16.9445 13.8167 16.6436 13.5401 16.7519C13.428 16.7958 13.3455 16.9299 13.3956 17.1489C13.4629 17.4435 13.8662 17.5716 14.1887 17.6084C14.3816 17.7783 14.6746 17.9585 15.3596 17.8553C15.3596 17.8553 15.0558 19.3271 13.0387 19.2629C13.0387 19.2629 12.2548 18.9841 12.4933 18.3765C12.5405 18.2555 12.7038 18.044 12.8682 18.0485C12.8682 18.0485 13.1429 18.1389 13.1429 17.907C13.1429 17.907 13.1212 17.7378 12.9456 17.7202C12.7698 17.7025 12.3487 17.7387 12.1561 18.268C12.0697 18.506 12.0879 18.8945 12.3234 19.1633C11.5611 18.976 10.9868 18.441 11.2177 17.7146C11.3424 17.3228 11.9035 16.9445 12.3487 17.2092C12.3369 17.3896 12.421 17.5342 12.6255 17.5342C12.7977 17.5342 12.8903 17.3777 12.8541 17.1853C12.8217 17.013 12.5765 16.7747 12.1561 16.7519C11.711 16.7278 10.8826 16.9789 10.8207 17.907C10.7637 18.7666 11.3511 19.3861 12.8108 19.578L12.8297 19.5937C12.8297 19.5937 13.7181 20.1736 14.9738 19.8642C14.9738 19.8642 17.5037 19.3813 16.9628 16.7158C16.9628 16.7158 17.5816 14.9745 16.2441 13.9631C16.2441 13.9631 16.2134 13.7148 16.4059 13.917C16.5206 14.0691 16.9835 14.1481 16.9835 13.8248C16.9835 13.8248 17.4228 14.2173 17.5812 13.8181C17.5812 13.8181 17.7459 14.2868 18.083 13.9726C18.083 13.9726 17.9999 14.333 18.1618 14.541C18.3236 14.7489 18.6241 14.6873 18.6241 14.6873C18.6241 14.6873 18.1618 15.9274 18.7164 15.9736C18.7164 15.9736 17.3301 18.7465 18.1329 19.0973C18.4115 19.2191 18.7371 19.1596 18.9027 18.8326C19.0397 18.5616 18.601 19.0931 18.3469 18.8621C18.0442 18.5872 18.4164 17.9147 18.7857 17.2214C19.2945 16.267 19.641 15.5649 19.7099 15.0956C19.7099 15.0956 20.0128 15.2944 20.1053 14.578C20.1792 14.005 20.0914 13.6064 20.0332 13.2007C20.0332 13.2007 20.426 13.4548 20.2335 12.5566C20.2335 12.5566 20.0919 11.9058 19.4159 11.2876ZM14.524 8.39969C14.5521 8.40338 14.5787 8.41066 14.6037 8.42027C14.6087 8.42862 14.6115 8.43794 14.6115 8.44833C14.6115 8.47997 14.586 8.50609 14.5541 8.50609C14.5226 8.50609 14.4967 8.47997 14.4967 8.44833C14.4967 8.42765 14.5078 8.41008 14.524 8.39969ZM14.4187 8.40474C14.4185 8.40619 14.4177 8.40765 14.4177 8.40911C14.4087 8.48648 14.4638 8.55647 14.5411 8.56559C14.6095 8.57355 14.6723 8.53094 14.6918 8.46677C14.7309 8.49288 14.7641 8.52201 14.7901 8.54492C14.6408 8.54705 14.6163 8.61685 14.4876 8.59277C14.4223 8.58054 14.353 8.5123 14.3492 8.42687C14.3763 8.41464 14.3851 8.41153 14.4187 8.40474ZM16.4425 17.3207C16.4425 17.3207 16.516 17.1997 16.555 17.3735C16.555 17.3735 16.6328 18.3102 16.0344 18.8827C15.6354 19.2643 14.7158 19.81 13.673 19.5719C13.673 19.5719 15.3374 19.4655 15.7627 17.9395L15.8095 17.7676C15.8095 17.7676 16.2289 17.6713 16.4425 17.3207Z" fill="white"/>
</svg>
