<svg width="28" height="28" viewBox="0 0 28 28" fill="none" xmlns="http://www.w3.org/2000/svg">
<path d="M4 0.5H24C25.933 0.5 27.5 2.067 27.5 4V24C27.5 25.933 25.933 27.5 24 27.5H4C2.067 27.5 0.5 25.933 0.5 24V4C0.5 2.067 2.067 0.5 4 0.5Z" fill="#692E27"/>
<path d="M4 0.5H24C25.933 0.5 27.5 2.067 27.5 4V24C27.5 25.933 25.933 27.5 24 27.5H4C2.067 27.5 0.5 25.933 0.5 24V4C0.5 2.067 2.067 0.5 4 0.5Z" stroke="#EBECEF"/>
<path d="M10.1722 12.2178C10.1722 13.6831 8.4726 15.8401 6.70403 16.6635L6.6875 16.6566C7.03238 17.6065 7.55867 18.4708 8.21681 19.2141L8.22184 19.2098C9.62039 18.4873 10.7351 17.096 11.597 15.4514C10.8422 14.633 10.1722 12.9794 10.1722 12.2178Z" fill="#FDC600"/>
<path d="M13.9998 12.2178C13.9538 14.4167 12.2553 18.8283 10.2227 20.8031C11.3403 21.4246 12.6293 21.7791 13.9998 21.7806C15.3717 21.7791 16.6586 21.4249 17.7773 20.8031C15.7454 18.8283 14.0465 14.4167 13.9998 12.2178Z" fill="#FDC600"/>
<path d="M17.8289 12.2178C17.8289 13.6831 19.5267 15.8401 21.2967 16.6635L21.3132 16.6566C20.9698 17.6065 20.4421 18.4708 19.7843 19.2141L19.7785 19.2098C18.3811 18.4873 17.2653 17.096 16.4023 15.4514C17.1578 14.633 17.8289 12.9794 17.8289 12.2178Z" fill="#FDC600"/>
<path d="M12.3494 13.8091C13.2654 11.5171 13.7727 8.98729 13.9408 7.20543C13.9494 7.11561 13.9785 6.53256 13.9785 6.22217C12.6192 6.22899 11.3384 6.57926 10.1953 7.21441C10.2075 7.6376 10.2435 8.00762 10.2621 8.16569C10.4827 9.98169 11.1308 13.031 12.3494 13.8091Z" fill="#FDC600"/>
<path d="M10.109 8.16324C10.1226 8.02816 10.1395 7.65958 10.1517 7.23926C7.80586 8.57997 6.22266 11.1058 6.22266 13.9981C6.22266 14.2525 6.24313 14.7058 6.26469 14.9537C8.84228 13.8792 9.82087 11.0074 10.109 8.16324Z" fill="#FDC600"/>
<path d="M15.6521 13.8091C14.7357 11.5171 14.2284 8.98729 14.0603 7.20543C14.0506 7.11561 14.0215 6.53256 14.0215 6.22217C15.3802 6.22899 16.6619 6.57926 17.8044 7.21441C17.7918 7.6376 17.7584 8.00762 17.7386 8.16569C17.5177 9.98169 16.8689 13.031 15.6521 13.8091Z" fill="#FDC600"/>
<path d="M17.8916 8.16324C17.8783 8.02816 17.8586 7.65958 17.8496 7.23926C20.1941 8.58033 21.7769 11.1058 21.7769 13.9985C21.7769 14.2528 21.7586 14.7062 21.7349 14.9541C19.1587 13.8792 18.1798 11.0074 17.8916 8.16324Z" fill="#FDC600"/>
</svg>
