<svg width="28" height="28" viewBox="0 0 28 28" fill="none" xmlns="http://www.w3.org/2000/svg">
<path d="M4 0.5H24C25.933 0.5 27.5 2.067 27.5 4V24C27.5 25.933 25.933 27.5 24 27.5H4C2.067 27.5 0.5 25.933 0.5 24V4C0.5 2.067 2.067 0.5 4 0.5Z" fill="white"/>
<path d="M4 0.5H24C25.933 0.5 27.5 2.067 27.5 4V24C27.5 25.933 25.933 27.5 24 27.5H4C2.067 27.5 0.5 25.933 0.5 24V4C0.5 2.067 2.067 0.5 4 0.5Z" stroke="#EBECEF"/>
<path fill-rule="evenodd" clip-rule="evenodd" d="M22.5559 7.38892H22.5475V7.38893H22.527H22.5065H22.486H22.4654H22.4449H22.4244H22.4039H22.3834H22.3629H22.3423H22.3218H22.3013H22.2808H22.2603H22.2398H22.2192H22.1987H22.1782H22.1577H22.1372H22.1166H22.0961H22.0756H22.0551H22.0346H22.0141H21.9935H21.973H21.9525H21.932H21.9115H21.891H21.8705H21.8499H21.8294H21.8089H21.7884H21.7679H21.7474H21.7268H21.7063H21.6858H21.6653H21.6448H21.6242H21.6037H21.5832H21.5627H21.5422H21.5217H21.5011H21.4806H21.4601H21.4396H21.4191H21.3986H21.3781H21.3575H21.337H21.3165H21.296H21.2755H21.255H21.2344H21.2139H21.1934H21.1729H21.1524H21.1318H21.1113H21.0908H21.0703H21.0498H21.0293H21.0087H20.9882H20.9677H20.9472H20.9267H20.9062H20.8856H20.8651H20.8446H20.8241H20.8036H20.7831H20.7626H20.742H20.7215H20.701H20.6805H20.66H20.6395H20.6189H20.5984H20.5779H20.5574H20.5369H20.5163H20.4958H20.4753H20.4548H20.4343H20.4138H20.3932H20.3727H20.3522H20.3317H20.3112H20.2907H20.2701H20.2496H20.2291H20.2086H20.1881H20.1676H20.1471H20.1265H20.106H20.0855H20.065H20.0445H20.0239H20.0034H19.9829H19.9624H19.9419H19.9214H19.9008H19.8803H19.8598H19.8393H19.8188H19.7983H19.7777H19.7572H19.7367H19.7162H19.6957H19.6752H19.6546H19.6341H19.6136H19.5931H19.5726H19.5521H19.5315H19.511H19.4905H19.47H19.4495H19.4341L19.429 7.389L19.4084 7.38926L19.3879 7.38953L19.3674 7.3902L19.3469 7.39097L19.3264 7.39182L19.3058 7.39313L19.2853 7.39444L19.2648 7.396L19.2443 7.39783L19.2238 7.39966L19.2033 7.40194L19.1828 7.4043L19.1622 7.4068L19.1417 7.40969L19.1212 7.41258L19.1007 7.41583L19.0802 7.41925L19.0597 7.42273L19.0391 7.4267L19.0186 7.43065L18.9981 7.43491L18.9776 7.43941L18.9571 7.44394L18.9366 7.44897L18.916 7.454L18.8955 7.45934L18.875 7.46494L18.8545 7.47058L18.834 7.47673L18.8135 7.48285L18.7929 7.48937L18.7724 7.49606L18.7519 7.50289L18.7314 7.51016L18.7109 7.51743L18.6904 7.52518L18.6698 7.53304L18.6493 7.54117L18.6288 7.5496L18.6083 7.55812L18.5878 7.56714L18.5673 7.57617L18.5467 7.58571L18.5262 7.59536L18.5057 7.60533L18.4852 7.6156L18.4647 7.62603L18.4442 7.63692L18.4236 7.64787L18.4031 7.6594L18.3826 7.67095L18.3621 7.68306L18.3416 7.69528L18.3211 7.70798L18.3005 7.72088L18.28 7.73417L18.2595 7.74778L18.239 7.76176L18.2185 7.77606L18.1979 7.79072L18.1774 7.80578L18.1569 7.82122L18.1364 7.83703L18.1159 7.85326L18.0954 7.86988L18.0749 7.88697L18.0543 7.90441L18.0338 7.92244L18.0133 7.94075L17.9928 7.95978C17.9908 7.96165 17.9888 7.96351 17.9868 7.96538C17.9819 7.96989 17.9771 7.9744 17.9723 7.97899C17.9672 7.98383 17.9622 7.98876 17.9573 7.99369C17.9554 7.9955 17.9536 7.99732 17.9518 7.99913L17.9312 8.01951L17.9107 8.04062L17.8902 8.06225L17.8697 8.08443C17.8639 8.09074 17.8583 8.09714 17.8526 8.10355C17.8515 8.10485 17.8503 8.10614 17.8492 8.10744C17.8481 8.10865 17.847 8.10986 17.846 8.11106C17.8402 8.11762 17.8344 8.12417 17.8287 8.13081C17.8217 8.13889 17.8149 8.14706 17.8081 8.15524L17.8081 8.15525L17.7876 8.18026C17.7863 8.18188 17.785 8.1835 17.7837 8.18511C17.7781 8.19201 17.7726 8.19891 17.7671 8.2059C17.7614 8.21323 17.7557 8.22066 17.7501 8.2281C17.7489 8.22965 17.7478 8.23121 17.7466 8.23276C17.7397 8.24188 17.7328 8.25105 17.7261 8.26029L17.7261 8.2603C17.7192 8.26969 17.7123 8.27908 17.7055 8.28859C17.699 8.29783 17.6926 8.30717 17.6862 8.31652L17.685 8.3183C17.6781 8.32844 17.6713 8.33867 17.6645 8.34894C17.6576 8.35943 17.6507 8.36995 17.644 8.38058C17.6371 8.39155 17.6302 8.40257 17.6235 8.41367C17.6165 8.42512 17.6097 8.43667 17.603 8.44827C17.596 8.46023 17.5892 8.47224 17.5824 8.48435C17.5755 8.49685 17.5686 8.5094 17.5619 8.52205C17.555 8.53517 17.5481 8.54835 17.5414 8.56163C17.5344 8.57543 17.5276 8.58931 17.5209 8.60329C17.5139 8.61794 17.507 8.63267 17.5004 8.6475C17.4934 8.66313 17.4865 8.67887 17.4799 8.69468C17.4728 8.71143 17.466 8.72832 17.4594 8.74529C17.4522 8.76346 17.4454 8.78177 17.4388 8.80018C17.4317 8.82003 17.4249 8.84005 17.4183 8.86017C17.4111 8.88219 17.4043 8.90437 17.3978 8.9267C17.3905 8.9517 17.3837 8.97688 17.3773 9.00226C17.3698 9.03191 17.363 9.0618 17.3568 9.09195C17.3278 9.23274 17.3125 9.37855 17.3125 9.52798V11.7491H17.3568H17.3773H17.3978H17.4183H17.4388H17.4594H17.4799H17.5004H17.5209H17.5414H17.5619H17.5824H17.603H17.6235H17.644H17.6645H17.685H17.7055H17.7261H17.7466H17.7671H17.7876H17.8081H17.8287H17.8492H17.8697H17.8902H17.9107H17.9312H17.9518H17.9723H17.9928H18.0133H18.0338H18.0543H18.0749H18.0954H18.1159H18.1364H18.1569H18.1774H18.1979H18.2185H18.239H18.2595H18.28H18.3005H18.3211H18.3416H18.3621H18.3826H18.4031H18.4236H18.4442H18.4647H18.4852H18.5057H18.5262H18.5467H18.5673H18.5878H18.6083H18.6288H18.6493H18.6698H18.6904H18.7109H18.7314H18.7519H18.7724H18.7929H18.8135H18.834H18.8545H18.875H18.8955H18.916H18.9366H18.9571H18.9776H18.9981H19.0186H19.0391H19.0597H19.0802H19.1007H19.1212H19.1417H19.1622H19.1828H19.2033H19.2238H19.2443H19.2648H19.2853H19.3058H19.3264H19.3469H19.3674H19.3879H19.4084H19.429H19.4495H19.47H19.4905H19.511H19.5315H19.5521H19.5726H19.5931H19.6136H19.6341H19.6546H19.6752H19.6957H19.7162H19.7367H19.7572H19.7777H19.7983H19.8188H19.8393H19.8598H19.8803H19.9008H19.9214H19.9419H19.9624H19.9829H20.0034H20.0239H20.0445H20.065H20.0855H20.106H20.1265H20.1471H20.1676H20.1881H20.2086H20.2291H20.2496H20.2701H20.2907H20.3112H20.3204L20.3317 11.7492L20.3522 11.7494L20.3727 11.7499L20.3932 11.7505L20.4138 11.7513L20.4343 11.7522L20.4548 11.7532L20.4753 11.7542L20.4958 11.7554L20.5163 11.7566L20.5287 11.7574L20.5369 11.7578L20.5574 11.759L20.5779 11.7605L20.5984 11.7621L20.6189 11.7639L20.6395 11.766L20.66 11.7682L20.6805 11.7706L20.701 11.7734L20.7215 11.7763L20.742 11.7794L20.7626 11.7829L20.7831 11.7865L20.8036 11.7903L20.8241 11.7945L20.8446 11.7989L20.8651 11.8035L20.8856 11.8085L20.9062 11.8138L20.9267 11.8192L20.9472 11.825L20.9677 11.8312L20.9882 11.8376L21.0087 11.8444L21.0293 11.8514L21.0498 11.8589L21.0703 11.8668L21.0908 11.875L21.1113 11.8835L21.1318 11.8925L21.1524 11.9019L21.1729 11.9119L21.1934 11.9222L21.2139 11.9331L21.2344 11.9445L21.255 11.9564L21.2755 11.9689L21.296 11.982L21.3165 11.9958C21.3234 12.0006 21.3303 12.0054 21.337 12.0103C21.3439 12.0153 21.3508 12.0204 21.3575 12.0256C21.3645 12.0309 21.3713 12.0362 21.3781 12.0417C21.385 12.0473 21.3918 12.053 21.3986 12.0587C21.4055 12.0646 21.4123 12.0706 21.4191 12.0767C21.426 12.083 21.4329 12.0894 21.4396 12.0958C21.4466 12.1025 21.4534 12.1092 21.4601 12.116C21.4671 12.1231 21.4739 12.1303 21.4806 12.1376C21.4876 12.1452 21.4945 12.1529 21.5011 12.1606C21.5082 12.1688 21.515 12.1772 21.5217 12.1856C21.5287 12.1944 21.5355 12.2033 21.5422 12.2124C21.5492 12.222 21.5561 12.2317 21.5627 12.2416C21.5698 12.2521 21.5766 12.2628 21.5832 12.2737C21.5903 12.2854 21.5972 12.2973 21.6037 12.3093C21.6109 12.3225 21.6177 12.3359 21.6242 12.3495C21.6315 12.3648 21.6384 12.3804 21.6448 12.3962C21.6522 12.4146 21.659 12.4333 21.6653 12.4524C21.6731 12.4763 21.6799 12.5008 21.6858 12.5258C21.6952 12.5659 21.7021 12.6075 21.7063 12.6505C21.7096 12.6842 21.7114 12.7187 21.7114 12.7541C21.7114 12.7876 21.7097 12.8208 21.7063 12.8535C21.7021 12.895 21.6953 12.9359 21.6858 12.9758C21.68 13.0005 21.6731 13.0248 21.6653 13.0487C21.6591 13.0678 21.6522 13.0866 21.6448 13.1051C21.6384 13.121 21.6315 13.1368 21.6242 13.1523C21.6178 13.1661 21.6109 13.1798 21.6037 13.1933C21.5972 13.2056 21.5903 13.2177 21.5832 13.2297C21.5766 13.2408 21.5698 13.2517 21.5627 13.2625C21.5561 13.2726 21.5492 13.2826 21.5422 13.2926C21.5355 13.3019 21.5287 13.3111 21.5217 13.3203C21.515 13.3289 21.5082 13.3375 21.5011 13.3459C21.4945 13.3539 21.4876 13.3619 21.4806 13.3698C21.4739 13.3774 21.4671 13.3848 21.4601 13.3922C21.4534 13.3993 21.4466 13.4063 21.4396 13.4132C21.4329 13.4199 21.426 13.4265 21.4191 13.433C21.4123 13.4393 21.4055 13.4455 21.3986 13.4517C21.3918 13.4577 21.385 13.4636 21.3781 13.4694C21.3713 13.475 21.3645 13.4806 21.3575 13.4861C21.3508 13.4914 21.344 13.4967 21.337 13.5019C21.3303 13.507 21.3234 13.512 21.3165 13.517C21.3097 13.5218 21.3029 13.5266 21.296 13.5313C21.2892 13.5359 21.2824 13.5405 21.2755 13.545L21.255 13.5579L21.2344 13.5703L21.2139 13.582L21.1934 13.5932L21.1729 13.6039L21.1524 13.6141L21.1318 13.6238L21.1113 13.633L21.0908 13.6418L21.0703 13.6501L21.0498 13.658L21.0293 13.6656L21.0087 13.6728L20.9882 13.6796L20.9677 13.686L20.9472 13.6921L20.9267 13.6978L20.9062 13.7033L20.8856 13.7085L20.8651 13.7132L20.8446 13.7177L20.8241 13.722L20.8036 13.7259L20.7831 13.7296L20.7626 13.733L20.7436 13.7359L20.7436 13.7607L20.7626 13.7621L20.7831 13.7639L20.8036 13.7658L20.8241 13.768L20.8446 13.7703L20.8651 13.7729L20.8856 13.7757L20.9062 13.7787L20.9267 13.7819L20.9472 13.7854L20.9677 13.7891L20.9882 13.7931L21.0087 13.7973L21.0293 13.8017L21.0498 13.8064L21.0703 13.8114L21.0908 13.8166L21.1113 13.822L21.1318 13.8278L21.1524 13.8339L21.1729 13.8402L21.1934 13.8469L21.2139 13.8539L21.2344 13.8611L21.255 13.8687L21.2755 13.8766L21.296 13.8849L21.3165 13.8936L21.337 13.9026L21.3575 13.9119L21.3781 13.9218L21.3986 13.932L21.4191 13.9427L21.4396 13.9538L21.4601 13.9654L21.4806 13.9776L21.5011 13.9903L21.5217 14.0035L21.5422 14.0174L21.5627 14.0319L21.5832 14.0471C21.5901 14.0524 21.597 14.0577 21.6037 14.063C21.6107 14.0686 21.6175 14.0741 21.6242 14.0798C21.6312 14.0856 21.638 14.0914 21.6448 14.0974C21.6517 14.1035 21.6585 14.1096 21.6653 14.1159C21.6722 14.1223 21.6791 14.1288 21.6858 14.1354C21.6928 14.1422 21.6996 14.1491 21.7063 14.1561C21.7133 14.1633 21.7201 14.1707 21.7268 14.1781C21.7338 14.1858 21.7406 14.1937 21.7474 14.2016C21.7543 14.2098 21.7612 14.2181 21.7679 14.2266C21.7749 14.2354 21.7817 14.2443 21.7884 14.2534C21.7954 14.263 21.8022 14.2728 21.8089 14.2826C21.816 14.2931 21.8228 14.3037 21.8294 14.3144C21.8365 14.3259 21.8433 14.3377 21.8499 14.3495C21.8571 14.3624 21.8639 14.3755 21.8705 14.3888C21.8777 14.4036 21.8846 14.4186 21.891 14.4338C21.8984 14.4513 21.9052 14.4692 21.9115 14.4874C21.9192 14.5095 21.926 14.5321 21.932 14.5551C21.9407 14.5889 21.9476 14.6235 21.9525 14.6591C21.9585 14.7024 21.9616 14.747 21.9616 14.7929C21.9616 14.8401 21.9585 14.8859 21.9525 14.9306C21.9476 14.9674 21.9408 15.0033 21.932 15.0383C21.926 15.0622 21.9192 15.0857 21.9115 15.1088C21.9052 15.1275 21.8983 15.1459 21.891 15.164C21.8845 15.1798 21.8777 15.1954 21.8705 15.2108C21.864 15.2245 21.8571 15.238 21.8499 15.2514C21.8434 15.2637 21.8365 15.2758 21.8294 15.2878C21.8228 15.2989 21.816 15.3099 21.8089 15.3207C21.8022 15.331 21.7954 15.3411 21.7884 15.3511C21.7817 15.3605 21.7749 15.3697 21.7679 15.3789C21.7612 15.3876 21.7543 15.3963 21.7474 15.4048C21.7407 15.413 21.7338 15.4211 21.7268 15.4291C21.7201 15.4368 21.7133 15.4444 21.7063 15.4519C21.6996 15.4591 21.6928 15.4663 21.6858 15.4734C21.6791 15.4802 21.6722 15.487 21.6653 15.4936C21.6585 15.5001 21.6517 15.5065 21.6448 15.5128C21.638 15.519 21.6312 15.5251 21.6242 15.5311C21.6175 15.5369 21.6107 15.5427 21.6037 15.5484C21.597 15.5539 21.5901 15.5594 21.5832 15.5648C21.5765 15.5701 21.5696 15.5754 21.5627 15.5806L21.5422 15.5956L21.5217 15.6099L21.5011 15.6236L21.4806 15.6368L21.4601 15.6493L21.4396 15.6612L21.4191 15.6727L21.3986 15.6838L21.3781 15.6943L21.3575 15.7044L21.337 15.714L21.3165 15.7233L21.296 15.7322L21.2755 15.7407L21.255 15.7488L21.2344 15.7567L21.2139 15.764L21.1934 15.7711L21.1729 15.7779L21.1524 15.7844L21.1318 15.7905L21.1113 15.7964L21.0908 15.8019L21.0703 15.8072L21.0498 15.8122L21.0293 15.8169L21.0087 15.8214L20.9882 15.8257L20.9677 15.8296L20.9472 15.8333L20.9267 15.8367L20.9062 15.8399L20.8856 15.843L20.8651 15.8457L20.8446 15.8482L20.8241 15.8505L20.8036 15.8525L20.7831 15.8544L20.7626 15.856L20.742 15.8575L20.7215 15.8587L20.701 15.8597L20.6805 15.8605L20.66 15.8611L20.6395 15.8615L20.6189 15.8617L20.6093 15.8617H20.5984H20.5779H20.5574H20.5369H20.5163H20.4958H20.4753H20.4548H20.4343H20.4138H20.3932H20.3727H20.3522H20.3317H20.3112H20.2907H20.2701H20.2496H20.2291H20.2086H20.1881H20.1676H20.1471H20.1265H20.106H20.0855H20.065H20.0445H20.0239H20.0034H19.9829H19.9624H19.9419H19.9214H19.9008H19.8803H19.8598H19.8393H19.8188H19.7983H19.7777H19.7572H19.7367H19.7162H19.6957H19.6752H19.6546H19.6341H19.6136H19.5931H19.5726H19.5521H19.5315H19.511H19.4905H19.47H19.4495H19.429H19.4084H19.3879H19.3674H19.3469H19.3264H19.3058H19.2853H19.2648H19.2443H19.2238H19.2033H19.1828H19.1622H19.1417H19.1212H19.1007H19.0802H19.0597H19.0391H19.0186H18.9981H18.9776H18.9571H18.9366H18.916H18.8955H18.875H18.8545H18.834H18.8135H18.7929H18.7724H18.7519H18.7314H18.7109H18.6904H18.6698H18.6493H18.6288H18.6083H18.5878H18.5673H18.5467H18.5262H18.5057H18.4852H18.4647H18.4442H18.4236H18.4031H18.3826H18.3621H18.3416H18.3211H18.3005H18.28H18.2595H18.239H18.2185H18.1979H18.1774H18.1569H18.1364H18.1159H18.0954H18.0749H18.0543H18.0338H18.0133H17.9928H17.9723H17.9518H17.9312H17.9107H17.8902H17.8697H17.8492H17.8287H17.8081H17.7876H17.7671H17.7466H17.7261H17.7055H17.685H17.6645H17.644H17.6235H17.603H17.5824H17.5619H17.5414H17.5209H17.5004H17.4799H17.4594H17.4388H17.4183H17.3978H17.3773H17.3568H17.3125V20.2222H17.3568H17.3773H17.3978H17.4183H17.4388H17.4594H17.4799H17.5004H17.5209H17.5414H17.5619H17.5824H17.603H17.6235H17.644H17.6645H17.685H17.7055H17.7261H17.7466H17.7671H17.7876H17.8081H17.8287H17.8492H17.8697H17.8902H17.9107H17.9312H17.9518H17.9723H17.9928H18.0133H18.0338H18.0543H18.0749H18.0954H18.1159H18.1364H18.1569H18.1774H18.1979H18.2185H18.239H18.2595H18.28H18.3005H18.3211H18.3416H18.3621H18.3826H18.4031H18.4236H18.4442H18.4647H18.4852H18.5057H18.5262H18.5467H18.5673H18.5878H18.6083H18.6288H18.6493H18.6698H18.6904H18.7109H18.7314H18.7519H18.7724H18.7929H18.8135H18.834H18.8545H18.875H18.8955H18.916H18.9366H18.9571H18.9776H18.9981H19.0186H19.0391H19.0597H19.0802H19.1007H19.1212H19.1417H19.1622H19.1828H19.2033H19.2238H19.2443H19.2648H19.2853H19.3058H19.3264H19.3469H19.3674H19.3879H19.4084H19.429H19.4495H19.47H19.4905H19.511H19.5315H19.5521H19.5726H19.5931H19.6136H19.6341H19.6546H19.6752H19.6957H19.7162H19.7367H19.7572H19.7777H19.7983H19.8188H19.8393H19.8598H19.8803H19.9008H19.9214H19.9419H19.9624H19.9829H20.0034H20.0239H20.0445H20.065H20.0855H20.106H20.1265H20.1471H20.1676H20.1881H20.2086H20.2291H20.2496H20.2701H20.2907H20.3112H20.3317H20.3522H20.3727H20.3932H20.4138H20.43L20.4343 20.2222L20.4548 20.2219L20.4753 20.2217L20.4958 20.2211L20.5163 20.2204L20.5369 20.2196L20.5574 20.2183L20.5779 20.217L20.5984 20.2156L20.6189 20.2137L20.6395 20.2119L20.66 20.2098L20.6805 20.2074L20.701 20.205L20.7215 20.2021L20.742 20.1993L20.7626 20.1962L20.7831 20.1927L20.8036 20.1893L20.8241 20.1854L20.8446 20.1815L20.8651 20.1774L20.8856 20.1729L20.9062 20.1684L20.9267 20.1634L20.9472 20.1584L20.9677 20.1532L20.9882 20.1476L21.0087 20.142L21.0293 20.136L21.0498 20.1298L21.0703 20.1235L21.0908 20.1168L21.1113 20.1101L21.1318 20.1028L21.1524 20.0955L21.1729 20.0879L21.1934 20.0801L21.2139 20.0721L21.2344 20.0637L21.255 20.0553L21.2755 20.0463L21.296 20.0373L21.3165 20.0279L21.337 20.0183L21.3575 20.0085L21.3781 19.9982L21.3986 19.9879L21.4191 19.977L21.4396 19.9661L21.4601 19.9547L21.4806 19.9432L21.5011 19.9312L21.5217 19.919L21.5422 19.9065L21.5627 19.8936L21.5832 19.8805L21.6037 19.8669L21.6242 19.8531L21.6448 19.8388L21.6653 19.8243L21.6858 19.8093L21.7063 19.794L21.7268 19.7782L21.7474 19.7622L21.7679 19.7456L21.7884 19.7287L21.8089 19.7113L21.8294 19.6934L21.8499 19.6751L21.8705 19.6563L21.891 19.6371L21.9115 19.6172C21.9132 19.6156 21.9149 19.6139 21.9166 19.6122C21.9218 19.6072 21.9269 19.6022 21.932 19.5971C21.9375 19.5915 21.943 19.5859 21.9484 19.5802C21.9498 19.5788 21.9512 19.5774 21.9525 19.576L21.9562 19.5722C21.9618 19.5664 21.9675 19.5606 21.973 19.5546L21.9935 19.5325L22.0141 19.5097L22.0346 19.4865C22.04 19.4802 22.0453 19.4739 22.0506 19.4676C22.0521 19.4658 22.0536 19.464 22.0551 19.4622L22.0756 19.4375L22.0961 19.4119L22.1166 19.3854C22.1235 19.3764 22.1304 19.3673 22.1372 19.3582C22.1441 19.3488 22.1509 19.3394 22.1577 19.3299C22.1646 19.3202 22.1714 19.3104 22.1782 19.3005C22.1851 19.2905 22.192 19.2805 22.1987 19.2703C22.2056 19.2599 22.2125 19.2495 22.2192 19.2389C22.2262 19.228 22.233 19.217 22.2398 19.206C22.2467 19.1947 22.2535 19.1833 22.2603 19.1718C22.2672 19.1601 22.2741 19.1482 22.2808 19.1363C22.2877 19.124 22.2946 19.1116 22.3013 19.0992C22.3083 19.0862 22.3151 19.0731 22.3218 19.06C22.3288 19.0463 22.3356 19.0325 22.3423 19.0187C22.3493 19.0042 22.3562 18.9896 22.3629 18.975C22.3699 18.9596 22.3767 18.9441 22.3834 18.9285C22.3904 18.9121 22.3973 18.8956 22.4039 18.8789C22.4109 18.8612 22.4178 18.8434 22.4244 18.8254C22.4315 18.8061 22.4384 18.7868 22.4449 18.7672C22.4521 18.7457 22.4589 18.724 22.4654 18.7021C22.4727 18.678 22.4795 18.6537 22.486 18.6292C22.4934 18.6008 22.5002 18.5721 22.5065 18.5433C22.5142 18.5079 22.521 18.4721 22.527 18.436C22.5358 18.3823 22.5427 18.3279 22.5475 18.2729C22.553 18.2105 22.5559 18.1473 22.5559 18.0834L22.5559 7.38892ZM20.0037 12.7883C20.012 12.8262 20.0164 12.8663 20.0164 12.9086C20.0164 12.9507 20.012 12.9908 20.0037 13.0287C19.9984 13.053 19.9915 13.0764 19.9832 13.0988C19.9771 13.1151 19.9702 13.131 19.9627 13.1462C19.9563 13.1591 19.9495 13.1715 19.9422 13.1835C19.9357 13.1942 19.9288 13.2045 19.9216 13.2145C19.9151 13.2237 19.9082 13.2325 19.9011 13.2411C19.8945 13.2491 19.8877 13.2569 19.8806 13.2645C19.874 13.2715 19.8671 13.2784 19.8601 13.2851C19.8534 13.2914 19.8466 13.2975 19.8396 13.3035C19.8329 13.3092 19.8261 13.3146 19.8191 13.32C19.8124 13.3251 19.8055 13.33 19.7986 13.3348C19.7918 13.3395 19.785 13.3439 19.7781 13.3482C19.7713 13.3524 19.7645 13.3564 19.7575 13.3602C19.7508 13.364 19.744 13.3676 19.737 13.3711C19.7303 13.3745 19.7234 13.3777 19.7165 13.3808C19.7097 13.3838 19.7029 13.3867 19.696 13.3895C19.6892 13.3921 19.6824 13.3947 19.6755 13.3971C19.6687 13.3995 19.6619 13.4017 19.655 13.4038C19.6482 13.4059 19.6414 13.4078 19.6345 13.4096C19.6277 13.4114 19.6208 13.413 19.614 13.4146C19.6072 13.4161 19.6003 13.4174 19.5935 13.4186L19.5885 13.4195C19.5845 13.4202 19.5792 13.421 19.5729 13.4218L19.5524 13.4241L19.5319 13.4261L19.5114 13.4276L19.4909 13.4287C19.4838 13.4289 19.4769 13.4291 19.4704 13.4292L19.4671 13.4292H19.4499H19.4293H19.4088H19.3883H19.3678H19.3473H19.3268H19.3063H19.2858H19.2652H19.2447H19.2242H19.2037H19.1832H19.1627H19.1422H19.1217H19.1011H19.0806H19.0601H19.0396H19.0191H18.9986H18.9781H18.9575H18.937H18.9165H18.896H18.8755H18.855H18.8345H18.814H18.7935H18.7729H18.7524H18.7319H18.7114H18.6909H18.6704H18.6499H18.6294H18.6088H18.5883H18.5678H18.5473H18.5268H18.5063H18.4858H18.4652H18.4447H18.4242H18.4037H18.3832H18.3627H18.3519V12.3879H18.3627H18.3832H18.4037H18.4242H18.4447H18.4652H18.4858H18.5063H18.5268H18.5473H18.5678H18.5883H18.6088H18.6294H18.6499H18.6704H18.6909H18.7114H18.7319H18.7524H18.7729H18.7935H18.814H18.8345H18.855H18.8755H18.896H18.9165H18.937H18.9575H18.9781H18.9986H19.0191H19.0396H19.0601H19.0806H19.1011H19.1217H19.1422H19.1627H19.1832H19.2037H19.2242H19.2447H19.2652H19.2858H19.3063H19.3268H19.3473H19.3678H19.3883H19.4088H19.4293H19.4499H19.4704H19.479L19.4909 12.3883L19.5114 12.3894L19.5319 12.3909L19.5524 12.3928L19.5729 12.395L19.5885 12.3969L19.5935 12.3978C19.6003 12.3991 19.6072 12.4005 19.614 12.402C19.6208 12.4035 19.6277 12.4052 19.6345 12.407C19.6414 12.4088 19.6482 12.4107 19.655 12.4128C19.6619 12.4149 19.6687 12.4172 19.6755 12.4196C19.6824 12.422 19.6892 12.4246 19.696 12.4273C19.7029 12.43 19.7097 12.4329 19.7165 12.436C19.7234 12.4391 19.7303 12.4423 19.737 12.4457C19.744 12.4492 19.7508 12.4528 19.7575 12.4565C19.7645 12.4604 19.7713 12.4645 19.7781 12.4686C19.785 12.4729 19.7918 12.4774 19.7986 12.482C19.8055 12.4868 19.8124 12.4918 19.8191 12.4969C19.8261 12.5022 19.8329 12.5077 19.8396 12.5134C19.8466 12.5194 19.8534 12.5255 19.8601 12.5318C19.8671 12.5385 19.874 12.5454 19.8806 12.5524C19.8877 12.56 19.8945 12.5678 19.9011 12.5758C19.9082 12.5844 19.9151 12.5932 19.9216 12.6024C19.9288 12.6124 19.9357 12.6227 19.9422 12.6334C19.9495 12.6454 19.9563 12.6579 19.9627 12.6707C19.9702 12.686 19.9771 12.7018 19.9832 12.7182C19.9915 12.7406 19.9984 12.764 20.0037 12.7883ZM18.3516 14.0653H18.3622H18.3827H18.4032H18.4237H18.4442H18.4647H18.4853H18.5058H18.5263H18.5468H18.5673H18.5878H18.6083H18.6288H18.6494H18.6699H18.6904H18.7109H18.7314H18.7519H18.7724H18.793H18.8135H18.834H18.8545H18.875H18.8955H18.916H18.9365H18.9571H18.9776H18.9981H19.0186H19.0391H19.0596H19.0801H19.1007H19.1212H19.1417H19.1622H19.1827H19.2032H19.2237H19.2443H19.2648H19.2853H19.3058H19.3263H19.3468H19.3673H19.3878H19.4083H19.4289H19.4494H19.4699H19.4904H19.5109H19.5314H19.552H19.5725H19.5895L19.593 14.0654C19.5993 14.0656 19.6062 14.0659 19.6135 14.0663L19.634 14.0676L19.6545 14.0693L19.675 14.0714L19.6955 14.0739C19.7029 14.0749 19.7098 14.076 19.7161 14.077L19.7285 14.0794L19.7366 14.0812C19.7434 14.0829 19.7503 14.0846 19.7571 14.0865C19.764 14.0884 19.7708 14.0904 19.7776 14.0926C19.7845 14.0948 19.7913 14.0972 19.7981 14.0997C19.805 14.1022 19.8118 14.1048 19.8186 14.1076C19.8255 14.1105 19.8324 14.1134 19.8391 14.1166C19.846 14.1197 19.8529 14.123 19.8597 14.1265C19.8666 14.13 19.8734 14.1337 19.8802 14.1376C19.8871 14.1415 19.8939 14.1456 19.9007 14.1498C19.9076 14.1542 19.9145 14.1586 19.9212 14.1633C19.9281 14.1681 19.935 14.173 19.9417 14.1781C19.9487 14.1834 19.9555 14.1889 19.9622 14.1945C19.9692 14.2003 19.976 14.2064 19.9827 14.2126C19.9897 14.2191 19.9966 14.2257 20.0033 14.2325C20.0103 14.2397 20.0171 14.2472 20.0238 14.2548C20.0308 14.2629 20.0377 14.2712 20.0443 14.2797C20.0514 14.2889 20.0582 14.2983 20.0648 14.308C20.072 14.3186 20.0788 14.3295 20.0853 14.3407C20.0926 14.3533 20.0995 14.3663 20.1058 14.3796C20.1134 14.3953 20.1202 14.4116 20.1263 14.4283C20.1345 14.4508 20.1414 14.4741 20.1468 14.4981C20.1562 14.5398 20.1613 14.5837 20.1613 14.6295C20.1613 14.6755 20.1562 14.7196 20.1468 14.7614C20.1414 14.7855 20.1345 14.8089 20.1263 14.8314C20.1202 14.8481 20.1134 14.8644 20.1058 14.8802C20.0995 14.8936 20.0926 14.9065 20.0853 14.9191C20.0788 14.9303 20.072 14.9412 20.0648 14.9518C20.0582 14.9615 20.0514 14.971 20.0443 14.9801C20.0377 14.9887 20.0308 14.997 20.0238 15.0051C20.0171 15.0127 20.0103 15.0201 20.0033 15.0273C19.9966 15.0342 19.9897 15.0408 19.9827 15.0473C19.976 15.0534 19.9692 15.0594 19.9622 15.0653C19.9555 15.0709 19.9487 15.0763 19.9417 15.0816C19.935 15.0867 19.9281 15.0916 19.9212 15.0964C19.9145 15.101 19.9076 15.1055 19.9007 15.1098C19.8939 15.114 19.8871 15.1181 19.8802 15.122C19.8734 15.1258 19.8666 15.1294 19.8597 15.1329C19.8529 15.1364 19.846 15.1397 19.8391 15.1429C19.8324 15.146 19.8255 15.1489 19.8186 15.1517C19.8118 15.1545 19.805 15.1571 19.7981 15.1596C19.7913 15.1621 19.7845 15.1644 19.7776 15.1665C19.7708 15.1687 19.764 15.1707 19.7571 15.1726C19.7503 15.1744 19.7434 15.1762 19.7366 15.1777L19.7285 15.1796C19.7247 15.1804 19.7206 15.1813 19.7161 15.1821C19.7098 15.1832 19.7029 15.1842 19.6955 15.1853L19.675 15.1878L19.6545 15.1898L19.634 15.1915L19.6135 15.1928L19.593 15.1936L19.582 15.1938H19.5725H19.552H19.5314H19.5109H19.4904H19.4699H19.4494H19.4289H19.4083H19.3878H19.3673H19.3468H19.3263H19.3058H19.2853H19.2648H19.2443H19.2237H19.2032H19.1827H19.1622H19.1417H19.1212H19.1007H19.0801H19.0596H19.0391H19.0186H18.9981H18.9776H18.9571H18.9365H18.916H18.8955H18.875H18.8545H18.834H18.8135H18.793H18.7724H18.7519H18.7314H18.7109H18.6904H18.6699H18.6494H18.6288H18.6083H18.5878H18.5673H18.5468H18.5263H18.5058H18.4853H18.4647H18.4442H18.4237H18.4032H18.3827H18.3622H18.3516V14.0653Z" fill="#1AAF5D"/>
<path d="M5.4893 14.8316C5.47463 14.8245 5.45997 14.8175 5.44531 14.8103V9.52796C5.44531 9.37897 5.46048 9.23353 5.4893 9.09312C5.49549 9.06297 5.50236 9.03309 5.50979 9.00342C5.51615 8.97801 5.52301 8.95281 5.53027 8.92778C5.53675 8.90546 5.54358 8.88332 5.55074 8.86132C5.5573 8.84118 5.56409 8.82113 5.57123 8.80124C5.57785 8.78285 5.58461 8.76456 5.59171 8.7464C5.59832 8.72943 5.60516 8.71251 5.6122 8.69574C5.61884 8.67993 5.62566 8.66422 5.63267 8.64862C5.63934 8.63378 5.64617 8.61907 5.65314 8.60442C5.65981 8.59042 5.66668 8.57653 5.67363 8.5627C5.68032 8.54943 5.68715 8.53625 5.69411 8.52314C5.70081 8.5105 5.70764 8.49794 5.71458 8.48545C5.7213 8.47335 5.72812 8.46132 5.73507 8.44938C5.74181 8.43778 5.74859 8.42621 5.75554 8.41475C5.76228 8.40366 5.76911 8.39266 5.77604 8.38171C5.78274 8.3711 5.78962 8.36056 5.79651 8.35007C5.80326 8.3398 5.81006 8.32957 5.81698 8.31943C5.82378 8.30947 5.83052 8.29953 5.83747 8.28969C5.84419 8.28019 5.85108 8.27081 5.85795 8.26142C5.86471 8.25218 5.87153 8.24301 5.87844 8.23389C5.88522 8.22492 5.89199 8.21589 5.89891 8.20703C5.90564 8.19842 5.91253 8.18995 5.91938 8.18145C5.92615 8.17304 5.93297 8.16468 5.93987 8.15638C5.94666 8.14822 5.95344 8.14007 5.96035 8.13201C5.9671 8.12412 5.97397 8.11637 5.98084 8.10859C5.98762 8.10087 5.99441 8.09317 6.00131 8.08557C6.00806 8.07813 6.01493 8.07079 6.02179 8.06345C6.02857 8.05618 6.03539 8.04897 6.04228 8.04181C6.04906 8.03474 6.05586 8.02767 6.06275 8.02069C6.06952 8.01383 6.07639 8.00707 6.08324 8.00031C6.09006 7.99359 6.09681 7.98681 6.10371 7.98019C6.11047 7.97371 6.11735 7.96737 6.12419 7.96097C6.13101 7.95459 6.13777 7.94819 6.14468 7.94191C6.15145 7.93575 6.15832 7.92971 6.16515 7.92364C6.17197 7.9176 6.17876 7.91154 6.18564 7.90559C6.19243 7.89972 6.19926 7.89395 6.20612 7.88817C6.2129 7.88244 6.21972 7.87671 6.22659 7.87106C6.23337 7.86548 6.24023 7.85995 6.24708 7.85444C6.25388 7.84899 6.26068 7.84358 6.26755 7.83821C6.27434 7.83288 6.28119 7.82763 6.28804 7.8224C6.29485 7.81721 6.30167 7.81204 6.30852 7.80695L6.32899 7.79192C6.33579 7.78698 6.34261 7.78207 6.34948 7.77721C6.35627 7.7724 6.3631 7.76764 6.36996 7.76292C6.37676 7.75821 6.38358 7.75354 6.39043 7.74892C6.39723 7.74435 6.40407 7.73985 6.41092 7.73535C6.41772 7.73089 6.42452 7.72639 6.43139 7.72199C6.43818 7.71765 6.44503 7.7134 6.45188 7.70912C6.4587 7.70486 6.46549 7.70055 6.47236 7.69638C6.47913 7.69225 6.486 7.68825 6.49283 7.68419C6.49967 7.68014 6.50643 7.67601 6.51332 7.67203C6.52009 7.66811 6.52698 7.66436 6.5338 7.66051C6.54063 7.65666 6.54742 7.65276 6.55429 7.64898C6.56107 7.64525 6.56792 7.64166 6.57476 7.63801C6.58158 7.63437 6.58838 7.63071 6.59523 7.62713C6.60203 7.62359 6.60887 7.62011 6.61572 7.61664L6.6362 7.60641C6.64302 7.60304 6.64983 7.59967 6.65669 7.59638C6.66349 7.59311 6.67033 7.58995 6.67716 7.58675C6.684 7.58355 6.69077 7.58028 6.69764 7.57717C6.70442 7.57407 6.71129 7.57116 6.71813 7.56815C6.72494 7.56514 6.73175 7.56208 6.7386 7.55913C6.7454 7.55622 6.75225 7.55342 6.75909 7.55058L6.77956 7.54216L6.80004 7.53398L6.82053 7.52614C6.82736 7.52354 6.83413 7.52086 6.841 7.51832C6.84779 7.51583 6.85467 7.5135 6.86149 7.51107C6.86831 7.50864 6.87511 7.50618 6.88197 7.50381L6.90244 7.49692L6.92293 7.49023C6.92975 7.48804 6.93655 7.4858 6.9434 7.48367C6.95019 7.48157 6.95706 7.47957 6.96388 7.47753C6.97071 7.47548 6.97751 7.47339 6.98437 7.47141C6.99117 7.46944 6.998 7.46761 7.00484 7.46571L7.02533 7.46011C7.03215 7.4583 7.03895 7.45645 7.0458 7.45471C7.05261 7.45296 7.05946 7.45137 7.06628 7.44969C7.0731 7.44802 7.07992 7.44627 7.08677 7.44466C7.09357 7.44307 7.10042 7.44158 7.10724 7.44006L7.12773 7.43558C7.13455 7.43411 7.14135 7.43262 7.14821 7.43123C7.15501 7.42986 7.16186 7.4286 7.16868 7.42728C7.17552 7.42596 7.18232 7.42459 7.18917 7.42334C7.19599 7.42209 7.20281 7.42096 7.20964 7.41978L7.23013 7.41636C7.23695 7.41527 7.24376 7.41409 7.25061 7.41304C7.25741 7.412 7.26426 7.41113 7.27108 7.41015C7.2779 7.40919 7.28472 7.40817 7.29157 7.40726L7.31205 7.40467L7.33254 7.40233C7.33937 7.40156 7.34616 7.40067 7.35301 7.39997C7.35981 7.39927 7.36666 7.39875 7.37348 7.39812L7.39397 7.39631C7.40079 7.39573 7.40761 7.39516 7.41445 7.39467C7.42127 7.39417 7.4281 7.39378 7.43494 7.39335C7.44177 7.39292 7.44858 7.39242 7.45541 7.39205C7.46221 7.39167 7.46905 7.39141 7.47589 7.39111L7.49638 7.39032C7.50319 7.39008 7.51 7.38972 7.51685 7.38955C7.52365 7.38938 7.5305 7.3894 7.53732 7.38929C7.54414 7.38919 7.55098 7.38907 7.55781 7.38904L7.56691 7.38892H7.57829H7.59878H7.61925H7.63973H7.66022H7.68069H7.70118H7.72165H7.74213H7.76262H7.78309H7.80358H7.82406H7.84453H7.86502H7.88549H7.90598H7.92646H7.94693H7.96742H7.98789H8.00839H8.02886H8.04933H8.06982H8.0903H8.11079H8.13126H8.15173H8.17222H8.1927H8.21319H8.23366H8.25414H8.27463H8.2951H8.31557H8.33606H8.35654H8.37703H8.3975H8.41798H8.43847H8.45894H8.47943H8.4999H8.52038H8.54087H8.56134H8.58183H8.60231H8.62278H8.64327H8.66374H8.68423H8.70471H8.72518H8.74567H8.76615H8.78662H8.80711H8.82758H8.84807H8.86855H8.88904H8.90951H8.92999H8.95048H8.97095H8.99142H9.01191H9.03239H9.05288H9.07335H9.09382H9.11432H9.13479H9.15528H9.17575H9.19623H9.21672H9.23719H9.25768H9.27815H9.29863H9.31912H9.33959H9.36007H9.38056H9.40103H9.42152H9.44199H9.46248H9.48296H9.50343H9.52392H9.5444H9.56489H9.58536H9.60583H9.62632H9.6468H9.66727H9.68776H9.70824H9.72873H9.7492H9.76969H9.79016H9.81064H9.83113H9.8516H9.87207H9.89257H9.91304H9.93353H9.954H9.97448H9.99497H10.0154H10.0359H10.0564H10.0769H10.0974H10.1178H10.1383H10.1588H10.1793H10.1998H10.2202H10.2407H10.2612H10.2817H10.3022H10.3226H10.3431H10.3636H10.3841H10.4046H10.425H10.4455H10.466H10.4865H10.507H10.5275H10.5479H10.5684H10.5889H10.6094H10.6299H10.6503H10.6708H10.6882V18.0834C10.6882 18.1764 10.6823 18.268 10.6708 18.3579C10.6653 18.4012 10.6584 18.4441 10.6503 18.4865C10.6442 18.5188 10.6374 18.5508 10.6299 18.5825C10.6235 18.6093 10.6167 18.6358 10.6094 18.6622C10.6029 18.6853 10.5961 18.7083 10.5889 18.731C10.5824 18.7517 10.5755 18.7721 10.5684 18.7925C10.5618 18.8113 10.555 18.8301 10.5479 18.8487C10.5413 18.866 10.5345 18.8833 10.5275 18.9004C10.5208 18.9166 10.514 18.9326 10.507 18.9486C10.5003 18.9637 10.4935 18.9787 10.4865 18.9937C10.4798 19.0079 10.473 19.0221 10.466 19.0362C10.4593 19.0497 10.4525 19.0631 10.4455 19.0765C10.4388 19.0893 10.432 19.1021 10.425 19.1148C10.4183 19.1271 10.4115 19.1393 10.4046 19.1514C10.3979 19.1631 10.391 19.1748 10.3841 19.1863C10.3774 19.1975 10.3705 19.2086 10.3636 19.2197C10.3569 19.2304 10.35 19.2412 10.3431 19.2518C10.3364 19.2623 10.3296 19.2727 10.3226 19.2829C10.3159 19.2929 10.3091 19.3028 10.3022 19.3127C10.2954 19.3223 10.2886 19.3319 10.2817 19.3414C10.2749 19.3508 10.2681 19.3601 10.2612 19.3693C10.2545 19.3784 10.2476 19.3873 10.2407 19.3962C10.234 19.4049 10.2271 19.4136 10.2202 19.4222C10.2135 19.4307 10.2067 19.4392 10.1998 19.4476C10.193 19.4558 10.1862 19.4639 10.1793 19.4719C10.1725 19.4799 10.1657 19.4878 10.1588 19.4957C10.152 19.5035 10.1452 19.5113 10.1383 19.5189C10.1316 19.5264 10.1247 19.5338 10.1178 19.5412C10.111 19.5485 10.1043 19.5559 10.0974 19.5631C10.0906 19.5702 10.0837 19.5772 10.0769 19.5842C10.0701 19.5912 10.0633 19.5981 10.0564 19.6049C10.0496 19.6117 10.0428 19.6184 10.0359 19.625C10.0291 19.6316 10.0223 19.6381 10.0154 19.6445C10.0086 19.6509 10.0019 19.6574 9.99497 19.6637C9.9882 19.6699 9.98133 19.676 9.97448 19.6821C9.96766 19.6882 9.96091 19.6944 9.954 19.7004C9.94725 19.7063 9.94035 19.712 9.93353 19.7178C9.92671 19.7236 9.91993 19.7295 9.91304 19.7352C9.90627 19.7408 9.8994 19.7463 9.89257 19.7518C9.88575 19.7573 9.87896 19.7629 9.87207 19.7683C9.86531 19.7737 9.85844 19.7789 9.8516 19.7841C9.84478 19.7894 9.83801 19.7946 9.83113 19.7998C9.82436 19.8049 9.81747 19.8098 9.81064 19.8148C9.80382 19.8198 9.79705 19.8248 9.79016 19.8297C9.7834 19.8346 9.77653 19.8393 9.76969 19.844C9.76285 19.8488 9.75609 19.8536 9.7492 19.8583C9.74243 19.8628 9.73556 19.8673 9.72873 19.8718C9.72189 19.8763 9.71512 19.8809 9.70824 19.8854C9.70147 19.8898 9.69458 19.8939 9.68776 19.8982C9.68094 19.9025 9.67416 19.9069 9.66727 19.9111C9.66049 19.9153 9.65362 19.9193 9.6468 19.9234C9.63998 19.9275 9.63319 19.9316 9.62632 19.9356C9.61952 19.9395 9.61269 19.9434 9.60583 19.9473C9.59903 19.9511 9.59221 19.955 9.58536 19.9588C9.57856 19.9625 9.57174 19.9663 9.56489 19.97L9.5444 19.9808C9.53758 19.9844 9.53078 19.988 9.52392 19.9915C9.51712 19.995 9.51028 19.9983 9.50343 20.0017C9.49661 20.0051 9.48983 20.0086 9.48296 20.0119C9.47617 20.0152 9.4693 20.0184 9.46248 20.0216C9.45565 20.0248 9.44886 20.0281 9.44199 20.0312C9.43521 20.0343 9.42834 20.0373 9.42152 20.0403L9.40103 20.0494L9.38056 20.0581C9.37375 20.061 9.3669 20.0637 9.36007 20.0665C9.35325 20.0693 9.34645 20.0722 9.33959 20.0749C9.33281 20.0776 9.32595 20.0801 9.31912 20.0827C9.31228 20.0853 9.3055 20.088 9.29863 20.0905C9.29183 20.0931 9.28499 20.0955 9.27815 20.0979L9.25768 20.1052L9.23719 20.1123C9.23039 20.1146 9.22354 20.1167 9.21672 20.119C9.20988 20.1212 9.2031 20.1235 9.19623 20.1256C9.18944 20.1278 9.18257 20.1297 9.17575 20.1318L9.15528 20.1379L9.13479 20.1438C9.12799 20.1457 9.12115 20.1475 9.11432 20.1494C9.10748 20.1512 9.10068 20.1532 9.09382 20.155C9.08704 20.1567 9.08015 20.1583 9.07335 20.16C9.06653 20.1617 9.05971 20.1634 9.05288 20.165L9.03239 20.1698L9.01191 20.1743C9.00508 20.1757 8.99829 20.1773 8.99142 20.1788C8.98462 20.1802 8.97777 20.1814 8.97095 20.1827C8.96413 20.184 8.95731 20.1854 8.95048 20.1866L8.92999 20.1904C8.92318 20.1916 8.91635 20.1926 8.90951 20.1938C8.90268 20.1949 8.89587 20.1961 8.88904 20.1972C8.88224 20.1982 8.87538 20.1991 8.86855 20.2001L8.84807 20.203C8.84125 20.2039 8.83444 20.2049 8.82758 20.2057C8.82078 20.2066 8.81393 20.2073 8.80711 20.2081C8.80027 20.2089 8.79347 20.2097 8.78662 20.2105C8.77982 20.2112 8.77298 20.2118 8.76615 20.2124L8.74567 20.2143C8.73884 20.2149 8.73203 20.2156 8.72518 20.2161C8.71838 20.2166 8.71153 20.2169 8.70471 20.2174L8.68423 20.2187L8.66374 20.2198C8.65694 20.2201 8.65009 20.2203 8.64327 20.2206C8.63643 20.2208 8.62962 20.2212 8.62278 20.2214C8.61598 20.2215 8.60912 20.2216 8.60231 20.2218L8.58183 20.222C8.57551 20.2221 8.5692 20.2222 8.56284 20.2222H8.56134H8.54087H8.52038H8.4999H8.47943H8.45894H8.43847H8.41798H8.3975H8.37703H8.35654H8.33606H8.31557H8.2951H8.27463H8.25414H8.23366H8.21319H8.1927H8.17222H8.15173H8.13126H8.11079H8.0903H8.06982H8.04933H8.02886H8.00839H7.98789H7.96742H7.94693H7.92646H7.90598H7.88549H7.86502H7.84453H7.82406H7.80358H7.78309H7.76262H7.74213H7.72165H7.70118H7.68069H7.66022H7.63973H7.61925H7.59878H7.57829H7.55781H7.53732H7.51685H7.49638H7.47589H7.45541H7.43494H7.41445H7.39397H7.37348H7.35301H7.33254H7.31205H7.29157H7.27108H7.25061H7.23013H7.20964H7.18917H7.16868H7.14821H7.12773H7.10724H7.08677H7.06628H7.0458H7.02533H7.00484H6.98437H6.96388H6.9434H6.92293H6.90244H6.88197H6.86149H6.841H6.82053H6.80004H6.77956H6.75909H6.7386H6.71813H6.69764H6.67716H6.65669H6.6362H6.61572H6.59523H6.57476H6.55429H6.5338H6.51332H6.49283H6.47236H6.45188H6.43139H6.41092H6.39043H6.36996H6.34948H6.32899H6.30852H6.28804H6.26755H6.24708H6.22659H6.20612H6.18564H6.16515H6.14468H6.12419H6.10371H6.08324H6.06275H6.04228H6.02179H6.00131H5.98084H5.96035H5.93987H5.91938H5.89891H5.87844H5.85795H5.83747H5.81698H5.79651H5.77604H5.75554H5.73507H5.71458H5.69411H5.67363H5.65314H5.63267H5.6122H5.59171H5.57123H5.55074H5.53027H5.50979H5.4893H5.44531V15.7146C5.44531 15.7146 5.46045 15.7188 5.4893 15.7262L5.50979 15.7313L5.53027 15.7363L5.55074 15.7413L5.57123 15.7462L5.59171 15.751L5.6122 15.7557L5.63267 15.7603L5.65314 15.7649L5.67363 15.7694L5.69411 15.7739L5.71458 15.7783L5.73507 15.7826L5.75554 15.7869L5.77604 15.7911L5.79651 15.7953L5.81698 15.7994L5.83747 15.8035L5.85795 15.8075L5.87844 15.8115L5.89891 15.8154L5.91938 15.8193L5.93987 15.8231L5.96035 15.8269L5.98084 15.8306L6.00131 15.8343L6.02179 15.8379L6.04228 15.8414L6.06275 15.8449L6.08324 15.8484L6.10371 15.8518L6.12419 15.8552L6.14468 15.8586L6.16515 15.8619L6.18564 15.8651L6.20612 15.8683L6.22659 15.8715L6.24708 15.8746L6.26755 15.8776L6.28804 15.8806L6.30852 15.8836L6.32899 15.8865L6.34948 15.8894L6.36996 15.8923L6.39043 15.8951L6.41092 15.8978L6.43139 15.9005L6.45188 15.9032L6.47236 15.9058L6.49283 15.9084L6.51332 15.9109L6.5338 15.9134L6.55429 15.9158L6.57476 15.9182L6.59523 15.9205L6.61572 15.9228L6.6362 15.9251L6.65669 15.9273L6.67716 15.9295L6.69764 15.9316L6.71813 15.9337L6.7386 15.9357L6.75909 15.9377L6.77956 15.9397L6.80004 15.9416L6.82053 15.9435L6.841 15.9453L6.86149 15.947L6.88197 15.9488L6.90244 15.9504L6.92293 15.9521L6.9434 15.9537L6.96388 15.9552L6.98437 15.9567L7.00484 15.9582L7.02533 15.9596L7.0458 15.961L7.06628 15.9623L7.08677 15.9636L7.10724 15.9648L7.12773 15.966L7.14821 15.9671L7.16868 15.9682L7.18917 15.9693L7.20964 15.9702L7.23013 15.9712L7.25061 15.9721L7.27108 15.973L7.29157 15.9738L7.31205 15.9745L7.33254 15.9753L7.35301 15.976L7.37348 15.9766L7.39397 15.9772L7.41445 15.9777L7.43494 15.9782L7.45541 15.9786L7.47589 15.979L7.49638 15.9793L7.51685 15.9796L7.53732 15.9798L7.55781 15.9801L7.57829 15.9802L7.59878 15.9803L7.61925 15.9803L7.62716 15.9804L7.63973 15.9803L7.66022 15.9802L7.68069 15.98L7.70118 15.9799L7.72165 15.9798L7.74213 15.9794L7.76262 15.979L7.78309 15.9787L7.80358 15.9783L7.82406 15.9778L7.84453 15.9771L7.86502 15.9765L7.88549 15.9759L7.90598 15.9752L7.92646 15.9743L7.94693 15.9734L7.96742 15.9724L7.98789 15.9715L8.00839 15.9704L8.02886 15.9692L8.04933 15.968L8.06982 15.9668L8.0903 15.9654L8.11079 15.9639L8.13126 15.9625L8.15173 15.961L8.17222 15.9593L8.1927 15.9576L8.21319 15.9558L8.23366 15.954L8.25414 15.9521L8.27463 15.95L8.2951 15.9479L8.31557 15.9458L8.33606 15.9435L8.35654 15.9411L8.37703 15.9386L8.3975 15.9362L8.41798 15.9335L8.43847 15.9308L8.45894 15.928L8.47943 15.9252C8.48633 15.9242 8.49305 15.9231 8.4999 15.9221L8.52038 15.919L8.54087 15.9159L8.56134 15.9126C8.56823 15.9115 8.57498 15.9103 8.58183 15.9092L8.60231 15.9057C8.60909 15.9045 8.61605 15.9034 8.62278 15.9022C8.62968 15.901 8.6364 15.8997 8.64327 15.8984L8.66374 15.8946L8.68423 15.8907L8.70471 15.8867C8.71159 15.8853 8.71835 15.8838 8.72518 15.8824L8.74567 15.8782L8.76615 15.8739C8.77307 15.8724 8.77977 15.8708 8.78662 15.8692L8.80711 15.8646C8.81389 15.863 8.82085 15.8615 8.82758 15.86C8.8345 15.8583 8.84122 15.8566 8.84807 15.8549L8.86855 15.8498C8.87535 15.8481 8.88229 15.8465 8.88904 15.8448C8.89592 15.843 8.90269 15.8412 8.90951 15.8394L8.92999 15.8339C8.9368 15.832 8.94372 15.8302 8.95048 15.8283C8.95736 15.8264 8.96413 15.8244 8.97095 15.8225L8.99142 15.8165C8.99824 15.8145 9.00516 15.8126 9.01191 15.8105L9.03239 15.8042L9.05288 15.7978C9.05968 15.7956 9.06662 15.7935 9.07335 15.7913L9.09382 15.7844L9.11432 15.7774C9.12112 15.7751 9.12807 15.7728 9.13479 15.7705C9.14171 15.768 9.14843 15.7655 9.15528 15.763L9.17575 15.7555C9.18257 15.7529 9.18948 15.7504 9.19623 15.7478C9.20315 15.7452 9.20988 15.7425 9.21672 15.7398C9.22355 15.7371 9.23044 15.7344 9.23719 15.7317L9.25768 15.7233L9.27815 15.7147C9.28496 15.7118 9.29191 15.709 9.29863 15.706C9.30557 15.703 9.31227 15.6998 9.31912 15.6967L9.33959 15.6875L9.36007 15.6779C9.36695 15.6746 9.37375 15.6713 9.38056 15.668C9.38738 15.6647 9.39431 15.6614 9.40103 15.658C9.40797 15.6545 9.41468 15.6509 9.42152 15.6474C9.42836 15.6439 9.43526 15.6404 9.44199 15.6368C9.44891 15.6331 9.45567 15.6294 9.46248 15.6257C9.46935 15.6219 9.47619 15.6182 9.48296 15.6144C9.48985 15.6105 9.49666 15.6066 9.50343 15.6027C9.51034 15.5987 9.51714 15.5946 9.52392 15.5906C9.53078 15.5865 9.53765 15.5824 9.5444 15.5783C9.55132 15.574 9.55808 15.5697 9.56489 15.5654C9.57174 15.561 9.57863 15.5567 9.58536 15.5523C9.59228 15.5478 9.59903 15.5432 9.60583 15.5386C9.61269 15.5339 9.61959 15.5294 9.62632 15.5247C9.63326 15.5198 9.64 15.5149 9.6468 15.51C9.65365 15.5051 9.66055 15.5002 9.66727 15.4952C9.67421 15.49 9.68098 15.4848 9.68776 15.4796C9.69465 15.4743 9.7015 15.469 9.70824 15.4636C9.71514 15.4581 9.72196 15.4526 9.72873 15.447C9.73563 15.4413 9.74245 15.4355 9.7492 15.4298C9.75609 15.4239 9.76297 15.418 9.76969 15.412C9.77665 15.4059 9.78338 15.3996 9.79016 15.3934C9.79703 15.387 9.80394 15.3807 9.81064 15.3743C9.81759 15.3676 9.82438 15.3609 9.83113 15.3542C9.83805 15.3473 9.84487 15.3403 9.8516 15.3333C9.85849 15.3261 9.86539 15.319 9.87207 15.3118C9.87905 15.3042 9.8858 15.2965 9.89257 15.2888C9.89952 15.2809 9.90632 15.273 9.91304 15.265C9.91996 15.2568 9.92685 15.2485 9.93353 15.2402C9.94047 15.2315 9.94732 15.2228 9.954 15.214C9.96099 15.2049 9.96776 15.1956 9.97448 15.1863C9.98147 15.1766 9.98827 15.1668 9.99497 15.157C10.002 15.1468 10.0088 15.1365 10.0154 15.1261C10.0224 15.1152 10.0293 15.1042 10.0359 15.0932C10.0429 15.0815 10.0498 15.0698 10.0564 15.0579C10.0634 15.0454 10.0703 15.0328 10.0769 15.02C10.084 15.0064 10.0908 14.9927 10.0974 14.9789C10.1045 14.9641 10.1113 14.9491 10.1178 14.934C10.125 14.9176 10.1318 14.9011 10.1383 14.8845C10.1455 14.8661 10.1524 14.8476 10.1588 14.8289C10.1661 14.8077 10.1729 14.7863 10.1793 14.7648C10.1867 14.7395 10.1935 14.7141 10.1998 14.6883C10.2075 14.6564 10.2143 14.6242 10.2202 14.5915C10.229 14.5429 10.2358 14.4936 10.2407 14.4436C10.2476 14.3739 10.251 14.3029 10.251 14.2308V11.7491H10.2407H10.2202H10.1998H10.1793H10.1588H10.1383H10.1178H10.0974H10.0769H10.0564H10.0359H10.0154H9.99497H9.97448H9.954H9.93353H9.91304H9.89257H9.87207H9.8516H9.83113H9.81064H9.79016H9.76969H9.7492H9.72873H9.70824H9.68776H9.66727H9.6468H9.62632H9.60583H9.58536H9.56489H9.5444H9.52392H9.50343H9.48296H9.46248H9.44199H9.42152H9.40103H9.38056H9.36007H9.33959H9.31912H9.29863H9.27815H9.25768H9.23719H9.21672H9.19623H9.17575H9.15528H9.13479H9.11432H9.09382H9.07335H9.05288H9.03239H9.01191H8.99142H8.97095H8.95048H8.92999H8.90951H8.88904H8.86855H8.84807H8.82758H8.80711H8.78662H8.76615H8.74567H8.72518H8.70471H8.68423H8.66374H8.64327H8.62278H8.60231H8.58183H8.56134H8.54087H8.52038H8.4999H8.47943H8.45894H8.43847H8.42294V14.2308C8.42294 14.2697 8.42126 14.3079 8.41798 14.3454C8.41379 14.3931 8.40694 14.4397 8.3975 14.485C8.39167 14.5129 8.38483 14.5404 8.37703 14.5673C8.3708 14.5888 8.364 14.6099 8.35654 14.6306C8.35018 14.6483 8.34333 14.6657 8.33606 14.6828C8.32959 14.6981 8.32277 14.7132 8.31557 14.728C8.30903 14.7416 8.30224 14.7549 8.2951 14.768C8.28854 14.7801 8.28167 14.792 8.27463 14.8037C8.26801 14.8147 8.26119 14.8256 8.25414 14.8364C8.2475 14.8464 8.24067 14.8563 8.23366 14.8661C8.227 14.8755 8.22021 14.8847 8.21319 14.8938C8.20652 14.9024 8.19967 14.9109 8.1927 14.9193C8.18602 14.9273 8.1792 14.9352 8.17222 14.943C8.16553 14.9505 8.15871 14.958 8.15173 14.9653C8.14502 14.9723 8.13822 14.9793 8.13126 14.9862C8.12454 14.9928 8.11773 14.9994 8.11079 15.0058C8.10407 15.012 8.09722 15.0181 8.0903 15.0242C8.08358 15.0301 8.07674 15.0359 8.06982 15.0416C8.06309 15.0471 8.05624 15.0526 8.04933 15.058C8.0426 15.0632 8.03576 15.0684 8.02886 15.0735C8.02211 15.0784 8.01529 15.0833 8.00839 15.0881C8.00163 15.0928 7.99482 15.0975 7.98789 15.102C7.98114 15.1065 7.97433 15.1108 7.96742 15.1152C7.96067 15.1194 7.95383 15.1235 7.94693 15.1276C7.94018 15.1316 7.93334 15.1355 7.92646 15.1393C7.91971 15.1431 7.91287 15.1468 7.90598 15.1505C7.89922 15.1541 7.8924 15.1576 7.88549 15.161C7.87873 15.1644 7.87191 15.1677 7.86502 15.171C7.85823 15.1742 7.85143 15.1774 7.84453 15.1805C7.83774 15.1836 7.83094 15.1866 7.82406 15.1895C7.8173 15.1924 7.81045 15.1952 7.80358 15.1979C7.79681 15.2006 7.78996 15.2033 7.78309 15.2059C7.77631 15.2085 7.7695 15.211 7.76262 15.2134C7.75583 15.2159 7.74901 15.2183 7.74213 15.2206C7.73536 15.2229 7.72852 15.2251 7.72165 15.2273C7.71489 15.2294 7.70803 15.2315 7.70118 15.2335C7.69439 15.2355 7.68756 15.2375 7.68069 15.2394C7.67389 15.2413 7.66709 15.2432 7.66022 15.245C7.65343 15.2467 7.64659 15.2484 7.63973 15.2501C7.63296 15.2517 7.62612 15.2533 7.61925 15.2548C7.61247 15.2564 7.60565 15.2579 7.59878 15.2593C7.59198 15.2607 7.58517 15.2621 7.57829 15.2634C7.5715 15.2647 7.56467 15.2659 7.55781 15.2672C7.55101 15.2684 7.54419 15.2695 7.53732 15.2707L7.51685 15.2738C7.51006 15.2748 7.50323 15.2757 7.49638 15.2766C7.48957 15.2775 7.48277 15.2784 7.47589 15.2792L7.45541 15.2815C7.44863 15.2822 7.44179 15.2828 7.43494 15.2835C7.42812 15.2841 7.42132 15.2847 7.41445 15.2852C7.40766 15.2858 7.40083 15.2862 7.39397 15.2867C7.38717 15.2871 7.38034 15.2875 7.37348 15.2879C7.36666 15.2882 7.35988 15.2886 7.35301 15.2889C7.34623 15.2891 7.33937 15.2893 7.33254 15.2895L7.31205 15.29C7.30526 15.2901 7.29843 15.2901 7.29157 15.2902L7.28387 15.2902L7.27108 15.2902L7.25061 15.29L7.23013 15.2898L7.20964 15.2893L7.18917 15.2888L7.16868 15.2881L7.14821 15.2873L7.12773 15.2863L7.10724 15.2853L7.08677 15.284L7.06628 15.2827L7.0458 15.2813L7.02533 15.2796L7.00484 15.2779L6.98437 15.2761L6.96388 15.2741L6.9434 15.272L6.92293 15.2698L6.90244 15.2674L6.88197 15.2649L6.86149 15.2623L6.841 15.2596L6.82053 15.2567L6.80004 15.2537L6.77956 15.2506L6.75909 15.2474L6.7386 15.2441L6.71813 15.2406L6.69764 15.237L6.67716 15.2333L6.65669 15.2295L6.6362 15.2256L6.61572 15.2215L6.59523 15.2173L6.57476 15.213L6.55429 15.2086L6.5338 15.2041L6.51332 15.1994L6.49283 15.1947L6.47236 15.1898L6.45188 15.1848L6.43139 15.1797L6.41092 15.1745L6.39043 15.1692L6.36996 15.1637L6.34948 15.1582L6.32899 15.1525L6.30852 15.1468L6.28804 15.1409L6.26755 15.1349L6.24708 15.1288L6.22659 15.1226L6.20612 15.1163L6.18564 15.1098L6.16515 15.1033L6.14468 15.0967L6.12419 15.09L6.10371 15.0831L6.08324 15.0761L6.06275 15.0691L6.04228 15.0619L6.02179 15.0547L6.00131 15.0473L5.98084 15.0399L5.96035 15.0323L5.93987 15.0246L5.91938 15.0168L5.89891 15.009L5.87844 15.001L5.85795 14.993L5.83747 14.9848L5.81698 14.9765L5.79651 14.9682L5.77604 14.9597L5.75554 14.9512L5.73507 14.9425L5.71458 14.9338L5.69411 14.925L5.67363 14.916L5.65314 14.907L5.63267 14.8979L5.6122 14.8887L5.59171 14.8794L5.57123 14.87L5.55074 14.8605L5.53027 14.851L5.50979 14.8413L5.4893 14.8316V14.8316V14.8316V14.8316V14.8316Z" fill="#227FBB"/>
<path d="M11.4229 12.2914C11.408 12.3035 11.3933 12.3158 11.3789 12.3282V9.52796C11.3789 9.37905 11.3941 9.2337 11.4229 9.09334C11.4291 9.06321 11.4359 9.03335 11.4434 9.0037C11.4497 8.97825 11.4566 8.95301 11.4638 8.92795C11.4703 8.90562 11.4772 8.88344 11.4843 8.86142C11.4909 8.8413 11.4977 8.82128 11.5048 8.80143C11.5114 8.78304 11.5182 8.76473 11.5253 8.74657C11.5319 8.7296 11.5387 8.71271 11.5458 8.69594C11.5524 8.68013 11.5592 8.66443 11.5662 8.6488C11.5729 8.63397 11.5798 8.61924 11.5867 8.60459C11.5934 8.59059 11.6003 8.57673 11.6072 8.56291C11.6139 8.54963 11.6207 8.53646 11.6277 8.52333C11.6344 8.51069 11.6412 8.49813 11.6482 8.48564C11.6549 8.47354 11.6617 8.46149 11.6687 8.44955C11.6754 8.43795 11.6822 8.4264 11.6891 8.41494C11.6959 8.40387 11.7027 8.39286 11.7096 8.38193C11.7163 8.37129 11.7232 8.36076 11.7301 8.35026C11.7369 8.33997 11.7437 8.32976 11.7506 8.31961C11.7574 8.30966 11.7641 8.2997 11.7711 8.28988C11.7778 8.28036 11.7847 8.271 11.7915 8.26163C11.7983 8.25239 11.8051 8.2432 11.812 8.23408C11.8188 8.22509 11.8256 8.21609 11.8325 8.20723C11.8392 8.19862 11.8461 8.19014 11.853 8.18163C11.8598 8.17323 11.8666 8.16486 11.8735 8.15658C11.8803 8.1484 11.8871 8.14026 11.894 8.1322C11.9007 8.12433 11.9076 8.11656 11.9144 8.10879C11.9212 8.10109 11.928 8.09336 11.9349 8.08575C11.9417 8.0783 11.9485 8.07094 11.9554 8.0636C11.9621 8.05635 11.969 8.04915 11.9759 8.04198C11.9827 8.03491 11.9895 8.02784 11.9963 8.02086C12.0031 8.01402 12.01 8.00726 12.0168 8.0005C12.0236 7.99378 12.0304 7.987 12.0373 7.98036C12.0441 7.97388 12.0509 7.96755 12.0578 7.96115C12.0646 7.95476 12.0714 7.94836 12.0783 7.94208C12.085 7.93593 12.0919 7.92987 12.0987 7.92379C12.1055 7.91774 12.1123 7.9117 12.1192 7.90574C12.126 7.89987 12.1329 7.89411 12.1397 7.88832C12.1465 7.88259 12.1533 7.87686 12.1602 7.8712C12.167 7.86562 12.1738 7.86009 12.1807 7.8546C12.1875 7.84914 12.1943 7.84372 12.2012 7.83834C12.2079 7.83304 12.2148 7.82779 12.2216 7.82255C12.2284 7.81737 12.2353 7.8122 12.2421 7.8071C12.2489 7.80203 12.2557 7.79704 12.2626 7.79206C12.2694 7.78713 12.2762 7.7822 12.2831 7.77734C12.2899 7.77254 12.2967 7.7678 12.3036 7.76306C12.3104 7.75835 12.3172 7.75366 12.324 7.74904C12.3308 7.74447 12.3377 7.73997 12.3445 7.73547C12.3513 7.73099 12.3581 7.72651 12.365 7.72211C12.3718 7.71776 12.3786 7.71352 12.3855 7.70924C12.3923 7.70498 12.3991 7.70067 12.406 7.6965C12.4128 7.69236 12.4196 7.68835 12.4265 7.6843C12.4333 7.68024 12.4401 7.6761 12.4469 7.67213C12.4537 7.66821 12.4606 7.66445 12.4674 7.6606C12.4743 7.65675 12.481 7.65286 12.4879 7.6491C12.4947 7.64537 12.5015 7.64178 12.5084 7.63811C12.5152 7.63447 12.522 7.63081 12.5289 7.62723L12.5493 7.61674L12.5698 7.60649C12.5766 7.60314 12.5834 7.59975 12.5903 7.59647C12.5971 7.5932 12.604 7.59003 12.6108 7.58683C12.6176 7.58365 12.6244 7.58037 12.6313 7.57725C12.638 7.57416 12.6449 7.57125 12.6518 7.56824C12.6586 7.56522 12.6654 7.56216 12.6722 7.55922C12.679 7.55631 12.6859 7.55349 12.6927 7.55065L12.7132 7.54223C12.72 7.53947 12.7268 7.53672 12.7337 7.53403C12.7405 7.53136 12.7473 7.5288 12.7542 7.52619C12.761 7.52359 12.7678 7.52091 12.7746 7.51837C12.7814 7.51588 12.7883 7.51355 12.7951 7.51112C12.8019 7.50869 12.8087 7.50623 12.8156 7.50387C12.8224 7.5015 12.8292 7.49925 12.8361 7.49697L12.8566 7.49028C12.8634 7.48809 12.8702 7.48585 12.877 7.48371C12.8838 7.4816 12.8907 7.47962 12.8975 7.47758C12.9043 7.47553 12.9112 7.47343 12.918 7.47144C12.9248 7.46947 12.9316 7.46764 12.9385 7.46574L12.959 7.46015C12.9658 7.45833 12.9726 7.45649 12.9794 7.45474C12.9863 7.45301 12.9931 7.45139 12.9999 7.44971C13.0067 7.44803 13.0136 7.44629 13.0204 7.44468C13.0272 7.44309 13.0341 7.4416 13.0409 7.44008L13.0614 7.43559C13.0682 7.43414 13.075 7.43263 13.0819 7.43125C13.0887 7.42986 13.0955 7.42861 13.1023 7.4273C13.1092 7.42598 13.116 7.42459 13.1228 7.42334L13.1433 7.41978L13.1638 7.41638C13.1706 7.41527 13.1774 7.41409 13.1843 7.41304C13.1911 7.412 13.1979 7.41113 13.2047 7.41015C13.2116 7.40919 13.2184 7.40818 13.2252 7.40728L13.2457 7.40469L13.2662 7.40233C13.273 7.40156 13.2798 7.40067 13.2867 7.39997C13.2935 7.39927 13.3003 7.39875 13.3071 7.39812L13.3276 7.39631C13.3345 7.39573 13.3413 7.39516 13.3481 7.39467C13.3549 7.39417 13.3618 7.39378 13.3686 7.39335C13.3754 7.39292 13.3822 7.39242 13.3891 7.39205C13.3959 7.39167 13.4027 7.39141 13.4096 7.39111L13.43 7.39032C13.4369 7.39008 13.4437 7.38972 13.4505 7.38955C13.4573 7.38938 13.4642 7.3894 13.471 7.38929C13.4778 7.38919 13.4847 7.38907 13.4915 7.38904L13.5005 7.38892H13.512H13.5325H13.5529H13.5734H13.5939H13.6144H13.6349H13.6553H13.6758H13.6963H13.7168H13.7373H13.7577H13.7782H13.7987H13.8192H13.8397H13.8602H13.8806H13.9011H13.9216H13.9421H13.9626H13.983H14.0035H14.024H14.0445H14.065H14.0854H14.1059H14.1264H14.1469H14.1674H14.1878H14.2083H14.2288H14.2493H14.2698H14.2903H14.3107H14.3312H14.3517H14.3722H14.3927H14.4131H14.4336H14.4541H14.4746H14.4951H14.5155H14.536H14.5565H14.577H14.5975H14.6179H14.6384H14.6589H14.6794H14.6999H14.7204H14.7409H14.7613H14.7818H14.8023H14.8228H14.8433H14.8637H14.8842H14.9047H14.9252H14.9457H14.9661H14.9866H15.0071H15.0276H15.0481H15.0686H15.089H15.1095H15.13H15.1505H15.171H15.1914H15.2119H15.2324H15.2529H15.2734H15.2938H15.3143H15.3348H15.3553H15.3758H15.3962H15.4167H15.4372H15.4577H15.4782H15.4987H15.5191H15.5396H15.5601H15.5806H15.6011H15.6215H15.642H15.6625H15.683H15.7035H15.7239H15.7444H15.7649H15.7854H15.8059H15.8264H15.8468H15.8673H15.8878H15.9083H15.9288H15.9493H15.9697H15.9902H16.0107H16.0312H16.0517H16.0721H16.0926H16.1131H16.1336H16.1541H16.1746H16.195H16.2155H16.236H16.2565H16.277H16.2974H16.3179H16.3384H16.3589H16.3794H16.3998H16.4203H16.4408H16.4613H16.4818H16.5022H16.5227H16.5432H16.5637H16.5842H16.6046H16.622V18.0834C16.622 18.1764 16.6161 18.2679 16.6046 18.3578C16.5991 18.4011 16.5922 18.4439 16.5842 18.4863C16.5781 18.5186 16.5712 18.5506 16.5637 18.5824C16.5573 18.6091 16.5505 18.6357 16.5432 18.6621C16.5367 18.6852 16.5299 18.7081 16.5227 18.7309C16.5162 18.7516 16.5094 18.772 16.5022 18.7924C16.4957 18.8112 16.4888 18.83 16.4818 18.8486C16.4751 18.8659 16.4683 18.8831 16.4613 18.9003C16.4546 18.9164 16.4478 18.9325 16.4408 18.9485C16.4341 18.9636 16.4273 18.9786 16.4203 18.9935C16.4136 19.0078 16.4068 19.022 16.3998 19.0361C16.3931 19.0496 16.3863 19.063 16.3794 19.0763C16.3726 19.0892 16.3658 19.102 16.3589 19.1147C16.3521 19.127 16.3454 19.1392 16.3384 19.1513C16.3317 19.163 16.3248 19.1747 16.3179 19.1862C16.3112 19.1974 16.3043 19.2085 16.2974 19.2196C16.2907 19.2303 16.2839 19.2411 16.277 19.2517C16.2702 19.2621 16.2634 19.2726 16.2565 19.2828C16.2497 19.2928 16.2429 19.3027 16.236 19.3126C16.2293 19.3222 16.2224 19.3317 16.2155 19.3413C16.2087 19.3506 16.2019 19.36 16.195 19.3692C16.1883 19.3782 16.1814 19.3872 16.1746 19.3961C16.1678 19.4048 16.1609 19.4134 16.1541 19.4221C16.1473 19.4306 16.1405 19.439 16.1336 19.4474C16.1268 19.4556 16.12 19.4637 16.1131 19.4718C16.1063 19.4798 16.0995 19.4877 16.0926 19.4956C16.0858 19.5033 16.079 19.5111 16.0721 19.5188C16.0654 19.5263 16.0585 19.5337 16.0517 19.5411C16.0449 19.5484 16.0381 19.5558 16.0312 19.563C16.0244 19.5701 16.0175 19.5771 16.0107 19.5841C16.0039 19.5911 15.9971 19.5979 15.9902 19.6048C15.9834 19.6115 15.9766 19.6182 15.9697 19.6249C15.963 19.6315 15.9561 19.6379 15.9493 19.6444C15.9424 19.6508 15.9357 19.6573 15.9288 19.6636C15.922 19.6698 15.9151 19.6759 15.9083 19.682C15.9015 19.6882 15.8947 19.6943 15.8878 19.7003C15.881 19.7062 15.8741 19.712 15.8673 19.7178C15.8605 19.7236 15.8537 19.7294 15.8468 19.7351C15.8401 19.7407 15.8332 19.7462 15.8264 19.7517C15.8195 19.7572 15.8128 19.7628 15.8059 19.7682C15.7991 19.7736 15.7922 19.7788 15.7854 19.784C15.7786 19.7892 15.7718 19.7945 15.7649 19.7997C15.7581 19.8048 15.7513 19.8097 15.7444 19.8147C15.7376 19.8197 15.7308 19.8248 15.7239 19.8296C15.7172 19.8345 15.7103 19.8392 15.7035 19.8439C15.6967 19.8487 15.6899 19.8535 15.683 19.8582C15.6762 19.8628 15.6693 19.8672 15.6625 19.8717C15.6557 19.8763 15.6489 19.8809 15.642 19.8853C15.6352 19.8897 15.6284 19.8939 15.6215 19.8982C15.6147 19.9025 15.6079 19.9068 15.6011 19.911C15.5943 19.9152 15.5874 19.9192 15.5806 19.9233C15.5738 19.9274 15.567 19.9315 15.5601 19.9355C15.5533 19.9394 15.5465 19.9433 15.5396 19.9472L15.5191 19.9587L15.4987 19.9699L15.4782 19.9808C15.4714 19.9843 15.4646 19.9879 15.4577 19.9914C15.4509 19.9949 15.4441 19.9983 15.4372 20.0017C15.4304 20.0051 15.4236 20.0086 15.4167 20.0119C15.41 20.0152 15.4031 20.0183 15.3962 20.0215C15.3894 20.0247 15.3826 20.028 15.3758 20.0311C15.369 20.0343 15.3621 20.0372 15.3553 20.0403L15.3348 20.0493L15.3143 20.058L15.2938 20.0665C15.287 20.0693 15.2802 20.0721 15.2734 20.0748C15.2666 20.0775 15.2597 20.08 15.2529 20.0826C15.246 20.0853 15.2393 20.0879 15.2324 20.0905C15.2256 20.093 15.2188 20.0954 15.2119 20.0979L15.1914 20.1052L15.171 20.1122C15.1642 20.1145 15.1573 20.1167 15.1505 20.1189C15.1436 20.1211 15.1368 20.1235 15.13 20.1256C15.1232 20.1277 15.1163 20.1297 15.1095 20.1318L15.089 20.1379L15.0686 20.1438C15.0617 20.1457 15.0549 20.1475 15.0481 20.1493C15.0412 20.1512 15.0345 20.1531 15.0276 20.1549C15.0208 20.1567 15.0139 20.1583 15.0071 20.1599C15.0003 20.1616 14.9935 20.1634 14.9866 20.165L14.9661 20.1697L14.9457 20.1742C14.9388 20.1757 14.932 20.1773 14.9252 20.1787C14.9184 20.1801 14.9115 20.1813 14.9047 20.1827L14.8842 20.1866L14.8637 20.1903C14.8569 20.1915 14.8501 20.1926 14.8433 20.1937C14.8364 20.1949 14.8296 20.1961 14.8228 20.1971C14.816 20.1982 14.8091 20.1991 14.8023 20.2001L14.7818 20.203C14.775 20.2039 14.7682 20.2049 14.7613 20.2057C14.7545 20.2066 14.7477 20.2073 14.7409 20.2081C14.734 20.2089 14.7272 20.2097 14.7204 20.2104C14.7136 20.2112 14.7067 20.2118 14.6999 20.2124L14.6794 20.2143C14.6726 20.2149 14.6658 20.2156 14.6589 20.2161C14.6521 20.2166 14.6453 20.2169 14.6384 20.2174L14.6179 20.2187L14.5975 20.2198C14.5907 20.2201 14.5838 20.2203 14.577 20.2206C14.5702 20.2208 14.5633 20.2211 14.5565 20.2213C14.5497 20.2215 14.5429 20.2216 14.536 20.2217L14.5155 20.222C14.5092 20.2221 14.5028 20.2222 14.4964 20.2222H14.4951H14.4746H14.4541H14.4336H14.4131H14.3927H14.3722H14.3517H14.3312H14.3107H14.2903H14.2698H14.2493H14.2288H14.2083H14.1878H14.1674H14.1469H14.1264H14.1059H14.0854H14.065H14.0445H14.024H14.0035H13.983H13.9626H13.9421H13.9216H13.9011H13.8806H13.8602H13.8397H13.8192H13.7987H13.7782H13.7577H13.7373H13.7168H13.6963H13.6758H13.6553H13.6349H13.6144H13.5939H13.5734H13.5529H13.5325H13.512H13.4915H13.471H13.4505H13.43H13.4096H13.3891H13.3686H13.3481H13.3276H13.3071H13.2867H13.2662H13.2457H13.2252H13.2047H13.1843H13.1638H13.1433H13.1228H13.1023H13.0819H13.0614H13.0409H13.0204H12.9999H12.9794H12.959H12.9385H12.918H12.8975H12.877H12.8566H12.8361H12.8156H12.7951H12.7746H12.7542H12.7337H12.7132H12.6927H12.6722H12.6518H12.6313H12.6108H12.5903H12.5698H12.5493H12.5289H12.5084H12.4879H12.4674H12.4469H12.4265H12.406H12.3855H12.365H12.3445H12.324H12.3036H12.2831H12.2626H12.2421H12.2216H12.2012H12.1807H12.1602H12.1397H12.1192H12.0987H12.0783H12.0578H12.0373H12.0168H11.9963H11.9759H11.9554H11.9349H11.9144H11.894H11.8735H11.853H11.8325H11.812H11.7915H11.7711H11.7506H11.7301H11.7096H11.6891H11.6687H11.6482H11.6277H11.6072H11.5867H11.5662H11.5458H11.5253H11.5048H11.4843H11.4638H11.4434H11.4229H11.3789V15.2838C11.3933 15.2962 11.408 15.3084 11.4229 15.3206C11.4296 15.3261 11.4365 15.3316 11.4434 15.337C11.4501 15.3424 11.457 15.3477 11.4638 15.3531C11.4706 15.3583 11.4774 15.3635 11.4843 15.3687C11.4911 15.3738 11.498 15.3788 11.5048 15.3839C11.5116 15.3888 11.5184 15.3938 11.5253 15.3987C11.5321 15.4035 11.5389 15.4084 11.5458 15.4132L11.5662 15.4273C11.573 15.4319 11.5799 15.4365 11.5867 15.441L11.6072 15.4545C11.614 15.4589 11.6208 15.4633 11.6277 15.4676C11.6345 15.4719 11.6413 15.4762 11.6482 15.4804L11.6687 15.4929C11.6755 15.4971 11.6823 15.5012 11.6891 15.5052C11.6959 15.5092 11.7028 15.5132 11.7096 15.5171L11.7301 15.5288L11.7506 15.5402L11.7711 15.5514C11.7779 15.5551 11.7847 15.5588 11.7915 15.5624C11.7983 15.566 11.8052 15.5695 11.812 15.573L11.8325 15.5835L11.853 15.5937L11.8735 15.6037C11.8803 15.607 11.8871 15.6103 11.894 15.6135L11.9144 15.623L11.9349 15.6325L11.9554 15.6416L11.9759 15.6506L11.9963 15.6594L12.0168 15.668L12.0373 15.6764L12.0578 15.6846L12.0783 15.6928L12.0987 15.7006C12.1056 15.7032 12.1123 15.7059 12.1192 15.7084L12.1397 15.7159C12.1465 15.7184 12.1533 15.721 12.1602 15.7234C12.167 15.7259 12.1739 15.7282 12.1807 15.7306L12.2012 15.7378L12.2216 15.7447C12.2285 15.747 12.2352 15.7493 12.2421 15.7516C12.2489 15.7538 12.2558 15.756 12.2626 15.7582L12.2831 15.7648L12.3036 15.7711L12.324 15.7774L12.3445 15.7835L12.365 15.7895L12.3855 15.7954L12.406 15.8012L12.4265 15.8068L12.4469 15.8123L12.4674 15.8177L12.4879 15.8229L12.5084 15.8281L12.5289 15.8331L12.5493 15.8381L12.5698 15.8428L12.5903 15.8476L12.6108 15.8521L12.6313 15.8566L12.6518 15.8611L12.6722 15.8653L12.6927 15.8696L12.7132 15.8736L12.7337 15.8776L12.7542 15.8815L12.7746 15.8853L12.7951 15.8891L12.8156 15.8927L12.8361 15.8962L12.8566 15.8997L12.877 15.903L12.8975 15.9064L12.918 15.9095L12.9385 15.9126L12.959 15.9156L12.9794 15.9186L12.9999 15.9215L13.0204 15.9242L13.0409 15.9269L13.0614 15.9296L13.0819 15.9321L13.1023 15.9346L13.1228 15.937L13.1433 15.9393L13.1638 15.9416L13.1843 15.9437L13.2047 15.9458L13.2252 15.9479L13.2457 15.9498L13.2662 15.9517L13.2867 15.9536L13.3071 15.9553L13.3276 15.9571L13.3481 15.9586L13.3686 15.9602L13.3891 15.9618L13.4096 15.9632L13.43 15.9645L13.4505 15.9659L13.471 15.9671L13.4915 15.9683L13.512 15.9695L13.5325 15.9705L13.5529 15.9715L13.5734 15.9725L13.5939 15.9734L13.6144 15.9742L13.6349 15.9751L13.6553 15.9757L13.6758 15.9764L13.6963 15.9771L13.7168 15.9776L13.7373 15.9781L13.7577 15.9786L13.7782 15.979L13.7987 15.9793L13.8192 15.9797L13.8397 15.9799L13.8602 15.9801L13.8806 15.9803L13.9011 15.9804L13.9216 15.9804L13.9421 15.9804L13.9626 15.9804L13.983 15.9803L14.0035 15.9801L14.024 15.98L14.0445 15.9797L14.065 15.9794L14.0854 15.9791L14.1059 15.9787L14.1264 15.9783L14.1469 15.9779L14.1674 15.9773L14.1878 15.9768L14.2083 15.9762L14.2288 15.9756L14.2493 15.9749L14.2698 15.9742L14.2903 15.9734L14.3107 15.9726L14.3312 15.9717L14.3517 15.9709L14.3617 15.9705L14.3722 15.9699L14.3927 15.9689L14.4131 15.9679L14.4336 15.9667L14.4541 15.9655L14.4746 15.9642L14.4951 15.9628L14.5155 15.9614L14.536 15.9599L14.5565 15.9584L14.577 15.9567L14.5975 15.955L14.6179 15.9533L14.6384 15.9515L14.6589 15.9496L14.6794 15.9476L14.6999 15.9457L14.7204 15.9436L14.7409 15.9415L14.7613 15.9393L14.7818 15.9371L14.8023 15.9349L14.8228 15.9325L14.8433 15.9302L14.8637 15.9277L14.8842 15.9252L14.9047 15.9227L14.9252 15.9201L14.9457 15.9175L14.9661 15.9148L14.9866 15.9121L15.0071 15.9093L15.0276 15.9065L15.0481 15.9036L15.0686 15.9007L15.089 15.8977L15.1095 15.8947L15.13 15.8917L15.1505 15.8886L15.171 15.8854L15.1914 15.8822L15.2119 15.879L15.2324 15.8757L15.2529 15.8724L15.2734 15.8691L15.2938 15.8656L15.3143 15.8622L15.3348 15.8587L15.3553 15.8552L15.3758 15.8516L15.3962 15.848L15.4167 15.8443L15.4372 15.8406L15.4577 15.8369L15.4782 15.8331L15.4987 15.8293L15.5191 15.8255L15.5396 15.8216L15.5601 15.8176L15.5806 15.8136L15.6011 15.8096L15.6215 15.8056L15.642 15.8015L15.6625 15.7973L15.683 15.7932L15.7035 15.7889L15.7239 15.7847L15.7444 15.7804L15.7649 15.776L15.7854 15.7716L15.8059 15.7672L15.8264 15.7627L15.8468 15.7582L15.8673 15.7536L15.8878 15.749L15.9083 15.7444L15.9288 15.7396L15.9493 15.7349L15.9697 15.73L15.9902 15.7251L16.0107 15.7202L16.0311 15.7151V14.8103L16.0107 14.8205L15.9902 14.8307L15.9697 14.8408L15.9493 14.8508L15.9288 14.8607L15.9083 14.8705L15.8878 14.8802L15.8673 14.8898L15.8468 14.8993L15.8264 14.9087L15.8059 14.918L15.7854 14.9272L15.7649 14.9363L15.7444 14.9453L15.7239 14.9541L15.7035 14.9629L15.683 14.9716L15.6625 14.9801L15.642 14.9885L15.6215 14.9968L15.6011 15.0051L15.5806 15.0132L15.5601 15.0211L15.5396 15.029L15.5191 15.0367L15.4987 15.0444L15.4782 15.0519L15.4577 15.0593L15.4372 15.0666L15.4167 15.0737L15.3962 15.0808L15.3758 15.0877L15.3553 15.0945L15.3348 15.1012L15.3143 15.1078L15.2938 15.1143L15.2734 15.1206L15.2529 15.1268L15.2324 15.133L15.2119 15.1389L15.1914 15.1448L15.171 15.1506L15.1505 15.1562L15.13 15.1617L15.1095 15.1671L15.089 15.1724L15.0686 15.1776L15.0481 15.1826L15.0276 15.1876L15.0071 15.1924L14.9866 15.1971L14.9661 15.2017L14.9457 15.2062L14.9252 15.2106L14.9047 15.2148L14.8842 15.2189L14.8637 15.223L14.8433 15.2269L14.8228 15.2306L14.8023 15.2343L14.7818 15.2379L14.7613 15.2413L14.7409 15.2447L14.7204 15.2479L14.6999 15.251L14.6794 15.254L14.6589 15.2569L14.6384 15.2597L14.6179 15.2623L14.5975 15.2649L14.577 15.2674L14.5565 15.2697L14.536 15.2719L14.5155 15.274L14.4951 15.276L14.4746 15.278L14.4541 15.2798L14.4336 15.2814L14.4212 15.2824L14.4131 15.283L14.3927 15.2844L14.3722 15.2857L14.3517 15.2868L14.3312 15.2879L14.3107 15.2889L14.2903 15.2895L14.2698 15.2902L14.2493 15.2906L14.2288 15.2909L14.2083 15.2912C14.2015 15.2912 14.1947 15.2911 14.1878 15.2911L14.1674 15.2911L14.1469 15.2907L14.1264 15.2903L14.1059 15.2898C14.0991 15.2896 14.0923 15.2892 14.0854 15.2889C14.0786 15.2887 14.0718 15.2884 14.065 15.2881L14.0445 15.287L14.024 15.2857L14.0035 15.2843L13.983 15.2827C13.9762 15.2821 13.9693 15.2816 13.9626 15.281C13.9557 15.2803 13.9489 15.2796 13.9421 15.2789L13.9216 15.2768L13.9011 15.2744L13.8806 15.2719L13.8602 15.2692L13.8397 15.2663C13.8328 15.2653 13.826 15.2643 13.8192 15.2632C13.8123 15.2622 13.8055 15.261 13.7987 15.2598C13.7919 15.2587 13.785 15.2576 13.7782 15.2564C13.7713 15.2552 13.7646 15.2538 13.7577 15.2525C13.7509 15.2513 13.744 15.25 13.7373 15.2487C13.7304 15.2473 13.7236 15.2458 13.7168 15.2444C13.71 15.2429 13.7031 15.2416 13.6963 15.2401C13.6894 15.2385 13.6826 15.2369 13.6758 15.2353L13.6553 15.2305C13.6485 15.2288 13.6417 15.227 13.6349 15.2253C13.628 15.2235 13.6212 15.2218 13.6144 15.2199C13.6075 15.2181 13.6007 15.2161 13.5939 15.2142C13.587 15.2123 13.5802 15.2104 13.5734 15.2083C13.5665 15.2063 13.5597 15.2042 13.5529 15.2021C13.5461 15.2 13.5392 15.1979 13.5325 15.1957C13.5256 15.1934 13.5188 15.1911 13.512 15.1889C13.5051 15.1865 13.4983 15.1842 13.4915 15.1819C13.4846 15.1794 13.4778 15.1769 13.471 15.1744C13.4642 15.1719 13.4573 15.1694 13.4505 15.1669C13.4436 15.1642 13.4369 15.1615 13.43 15.1588C13.4232 15.156 13.4163 15.1534 13.4096 15.1506C13.4027 15.1477 13.3959 15.1447 13.3891 15.1418C13.3822 15.1388 13.3754 15.1359 13.3686 15.1328C13.3617 15.1297 13.3549 15.1265 13.3481 15.1233C13.3413 15.1201 13.3344 15.1169 13.3276 15.1136C13.3208 15.1103 13.3139 15.1069 13.3071 15.1034C13.3003 15.0999 13.2935 15.0964 13.2867 15.0928C13.2798 15.0892 13.2729 15.0856 13.2662 15.0819C13.2593 15.0781 13.2525 15.0742 13.2457 15.0703C13.2389 15.0664 13.232 15.0625 13.2252 15.0585C13.2183 15.0544 13.2115 15.0502 13.2047 15.0461C13.1979 15.0418 13.1911 15.0375 13.1843 15.0331C13.1774 15.0287 13.1705 15.0244 13.1638 15.0199C13.1569 15.0152 13.1501 15.0105 13.1433 15.0057C13.1364 15.0009 13.1296 14.9961 13.1228 14.9912C13.1159 14.9862 13.1091 14.9812 13.1023 14.9761C13.0954 14.9709 13.0886 14.9655 13.0819 14.9602C13.075 14.9547 13.0681 14.9492 13.0614 14.9437C13.0545 14.938 13.0476 14.9324 13.0409 14.9266C13.034 14.9206 13.0272 14.9146 13.0204 14.9085C13.0135 14.9023 13.0067 14.896 12.9999 14.8896C12.993 14.8831 12.9862 14.8766 12.9794 14.8699C12.9726 14.8632 12.9657 14.8564 12.959 14.8495C12.952 14.8423 12.9452 14.835 12.9385 14.8277C12.9315 14.8202 12.9247 14.8126 12.918 14.8049C12.9111 14.797 12.9042 14.789 12.8975 14.7809C12.8906 14.7726 12.8838 14.7642 12.877 14.7557C12.8701 14.7469 12.8633 14.738 12.8566 14.729C12.8496 14.7197 12.8428 14.7103 12.8361 14.7008C12.8291 14.6909 12.8223 14.6808 12.8156 14.6707C12.8086 14.6601 12.8018 14.6494 12.7951 14.6386C12.7881 14.6272 12.7813 14.6157 12.7746 14.6041C12.7676 14.5918 12.7608 14.5794 12.7542 14.5669C12.7471 14.5536 12.7403 14.5401 12.7337 14.5265C12.7266 14.512 12.7198 14.4972 12.7132 14.4824C12.7061 14.4664 12.6992 14.4502 12.6927 14.4338C12.6855 14.4156 12.6788 14.3971 12.6722 14.3784C12.665 14.3577 12.6581 14.3367 12.6518 14.3154C12.6444 14.2906 12.6375 14.2655 12.6313 14.2399C12.6235 14.208 12.6167 14.1755 12.6108 14.1424C12.602 14.0933 12.5951 14.0428 12.5903 13.9909C12.5848 13.9311 12.582 13.8694 12.582 13.8059C12.582 13.7424 12.5848 13.6807 12.5903 13.6208C12.5951 13.5689 12.602 13.5184 12.6108 13.4693C12.6167 13.4362 12.6235 13.4036 12.6313 13.3717C12.6375 13.3461 12.6444 13.321 12.6518 13.2962C12.6581 13.2748 12.665 13.2538 12.6722 13.2331C12.6788 13.2144 12.6855 13.1959 12.6927 13.1777C12.6992 13.1613 12.7061 13.1451 12.7132 13.1291C12.7198 13.1142 12.7266 13.0995 12.7337 13.085C12.7403 13.0714 12.7471 13.0579 12.7542 13.0446C12.7608 13.032 12.7676 13.0196 12.7746 13.0074C12.7813 12.9957 12.7881 12.9842 12.7951 12.9728C12.8018 12.962 12.8086 12.9513 12.8156 12.9407C12.8223 12.9305 12.8291 12.9205 12.8361 12.9106C12.8428 12.9011 12.8496 12.8917 12.8566 12.8824C12.8633 12.8734 12.8701 12.8645 12.877 12.8557C12.8838 12.8472 12.8906 12.8388 12.8975 12.8304C12.9042 12.8224 12.9111 12.8144 12.918 12.8065C12.9247 12.7988 12.9315 12.7911 12.9385 12.7836C12.9452 12.7763 12.952 12.769 12.959 12.7618C12.9657 12.7549 12.9726 12.7481 12.9794 12.7413C12.9862 12.7347 12.993 12.7282 12.9999 12.7217C13.0067 12.7153 13.0135 12.709 13.0204 12.7028C13.0272 12.6967 13.034 12.6906 13.0409 12.6847C13.0476 12.6789 13.0545 12.6733 13.0614 12.6676C13.0681 12.662 13.075 12.6565 13.0819 12.6511C13.0886 12.6457 13.0954 12.6404 13.1023 12.6351C13.1091 12.63 13.1159 12.6251 13.1228 12.6201C13.1296 12.6151 13.1364 12.6103 13.1433 12.6055C13.1501 12.6008 13.1569 12.596 13.1638 12.5914C13.1705 12.5869 13.1774 12.5825 13.1843 12.5781C13.1911 12.5737 13.1979 12.5694 13.2047 12.5651C13.2115 12.561 13.2183 12.5568 13.2252 12.5527C13.232 12.5487 13.2389 12.5448 13.2457 12.5409C13.2525 12.537 13.2593 12.5331 13.2662 12.5293C13.2729 12.5256 13.2798 12.522 13.2867 12.5184C13.2935 12.5148 13.3003 12.5113 13.3071 12.5078C13.3139 12.5043 13.3208 12.5009 13.3276 12.4976C13.3344 12.4943 13.3413 12.4911 13.3481 12.4878C13.3549 12.4847 13.3617 12.4814 13.3686 12.4783C13.3754 12.4753 13.3822 12.4724 13.3891 12.4694C13.3959 12.4665 13.4027 12.4635 13.4096 12.4606C13.4163 12.4578 13.4232 12.4551 13.43 12.4524C13.4369 12.4497 13.4436 12.4469 13.4505 12.4443C13.4573 12.4417 13.4642 12.4392 13.471 12.4367C13.4778 12.4342 13.4846 12.4317 13.4915 12.4293C13.4983 12.4269 13.5051 12.4246 13.512 12.4223C13.5188 12.42 13.5256 12.4177 13.5325 12.4155C13.5392 12.4133 13.5461 12.4112 13.5529 12.409C13.5597 12.4069 13.5665 12.4049 13.5734 12.4028L13.5939 12.3969C13.6007 12.395 13.6075 12.3931 13.6144 12.3912C13.6212 12.3894 13.628 12.3876 13.6349 12.3859C13.6417 12.3841 13.6485 12.3824 13.6553 12.3807L13.6758 12.3758C13.6826 12.3742 13.6894 12.3726 13.6963 12.3711C13.7031 12.3696 13.71 12.3682 13.7168 12.3668C13.7236 12.3653 13.7304 12.3638 13.7373 12.3624C13.744 12.3611 13.7509 12.3599 13.7577 12.3586C13.7646 12.3573 13.7713 12.356 13.7782 12.3547C13.785 12.3535 13.7919 12.3524 13.7987 12.3513C13.8055 12.3502 13.8123 12.349 13.8192 12.3479L13.8397 12.3448L13.8602 12.3419L13.8806 12.3392L13.9011 12.3367L13.9216 12.3343L13.9421 12.3322C13.9489 12.3315 13.9557 12.3308 13.9626 12.3301C13.9693 12.3295 13.9762 12.329 13.983 12.3285L14.0035 12.3268L14.024 12.3254L14.0445 12.3242L14.065 12.323C14.0718 12.3227 14.0786 12.3225 14.0854 12.3222C14.0923 12.3219 14.0991 12.3216 14.1059 12.3213L14.1264 12.3208L14.1469 12.3204L14.1674 12.3201L14.1878 12.32C14.1947 12.32 14.2015 12.3199 14.2083 12.3199L14.2288 12.3202L14.2493 12.3205L14.2698 12.3209L14.2903 12.3216L14.3107 12.3223L14.3312 12.3232L14.3517 12.3243L14.3722 12.3254L14.3927 12.3267L14.4131 12.3281L14.4212 12.3287L14.4336 12.3297L14.4541 12.3313L14.4746 12.3331L14.4951 12.335L14.5155 12.3369L14.536 12.339L14.5565 12.3413L14.577 12.3435L14.5975 12.346L14.6179 12.3485L14.6384 12.3511L14.6589 12.3539L14.6794 12.3567L14.6999 12.3597L14.7204 12.3627L14.7409 12.3659L14.7613 12.3692L14.7818 12.3726L14.8023 12.3762L14.8228 12.3798L14.8433 12.3836L14.8637 12.3874L14.8842 12.3914L14.9047 12.3955L14.9252 12.3997L14.9457 12.404L14.9661 12.4085L14.9866 12.413L15.0071 12.4177L15.0276 12.4225L15.0481 12.4274L15.0686 12.4324L15.089 12.4376L15.1095 12.4428L15.13 12.4482L15.1505 12.4537L15.171 12.4594L15.1914 12.4651L15.2119 12.471L15.2324 12.4769L15.2529 12.4831L15.2734 12.4893L15.2938 12.4956L15.3143 12.5021L15.3348 12.5086L15.3553 12.5154L15.3758 12.5222L15.3962 12.5291L15.4167 12.5362L15.4372 12.5433L15.4577 12.5507L15.4782 12.5581L15.4987 12.5656L15.5191 12.5733L15.5396 12.5811L15.5601 12.589L15.5806 12.597L15.6011 12.6051L15.6215 12.6134L15.642 12.6217L15.6625 12.6302L15.683 12.6388L15.7035 12.6475L15.7239 12.6564L15.7444 12.6653L15.7649 12.6743L15.7854 12.6835L15.8059 12.6928L15.8264 12.7021L15.8468 12.7116L15.8673 12.7212L15.8878 12.7309L15.9083 12.7407L15.9288 12.7506L15.9493 12.7606L15.9697 12.7707L15.9902 12.7808L16.0107 12.7911L16.0311 12.8014V11.896L16.0107 11.8909L15.9902 11.886L15.9697 11.8811L15.9493 11.8762L15.9288 11.8715L15.9083 11.8668L15.8878 11.8621L15.8673 11.8575L15.8468 11.8529L15.8264 11.8484L15.8059 11.8439L15.7854 11.8395L15.7649 11.8351L15.7444 11.8308L15.7239 11.8265L15.7035 11.8222L15.683 11.818L15.6625 11.8138L15.642 11.8097L15.6215 11.8056L15.6011 11.8015L15.5806 11.7975L15.5601 11.7935L15.5396 11.7896L15.5191 11.7857L15.4987 11.7819L15.4782 11.778L15.4577 11.7743L15.4372 11.7705L15.4167 11.7669L15.3962 11.7632L15.3758 11.7596L15.3553 11.756L15.3348 11.7525L15.3143 11.749L15.2938 11.7456L15.2734 11.7422L15.2529 11.7388L15.2324 11.7355L15.2119 11.7322L15.1914 11.729L15.171 11.7258L15.1505 11.7227L15.13 11.7196L15.1095 11.7165L15.089 11.7135L15.0686 11.7106L15.0481 11.7077L15.0276 11.7048L15.0071 11.702L14.9866 11.6992L14.9661 11.6965L14.9457 11.6938L14.9252 11.6912L14.9047 11.6886L14.8842 11.6861L14.8637 11.6836L14.8433 11.6812L14.8228 11.6788L14.8023 11.6765L14.7818 11.6742L14.7613 11.672L14.7409 11.6699L14.7204 11.6678L14.6999 11.6657L14.6794 11.6638L14.6589 11.6618L14.6384 11.66L14.6179 11.6582L14.5975 11.6564L14.577 11.6547L14.5565 11.6531L14.536 11.6516L14.5155 11.6501L14.4951 11.6487L14.4746 11.6473L14.4541 11.6461L14.4336 11.6448L14.4131 11.6437L14.3927 11.6426L14.3722 11.6416L14.3617 11.6411L14.3517 11.6407L14.3312 11.6398L14.3107 11.639L14.2903 11.6381L14.2698 11.6374L14.2493 11.6367L14.2288 11.636L14.2083 11.6354L14.1878 11.6348L14.1674 11.6342L14.1469 11.6337L14.1264 11.6333L14.1059 11.6329L14.0854 11.6324L14.065 11.6322L14.0445 11.6319L14.024 11.6316L14.0035 11.6314L13.983 11.6313L13.9626 11.6312L13.9421 11.6312L13.9216 11.6312L13.9011 11.6312L13.8806 11.6313L13.8602 11.6315L13.8397 11.6317L13.8192 11.6319L13.7987 11.6323L13.7782 11.6326L13.7577 11.633L13.7373 11.6335L13.7168 11.634L13.6963 11.6345L13.6758 11.6352L13.6553 11.6359L13.6349 11.6365L13.6144 11.6374L13.5939 11.6382L13.5734 11.6391L13.5529 11.6401L13.5325 11.6411L13.512 11.6421L13.4915 11.6433L13.471 11.6445L13.4505 11.6457L13.43 11.6471L13.4096 11.6484L13.3891 11.6498L13.3686 11.6514L13.3481 11.653L13.3276 11.6546L13.3071 11.6563L13.2867 11.658L13.2662 11.6599L13.2457 11.6618L13.2252 11.6637L13.2047 11.6658L13.1843 11.6679L13.1638 11.6701L13.1433 11.6724L13.1228 11.6747L13.1023 11.677L13.0819 11.6796L13.0614 11.6821L13.0409 11.6847L13.0204 11.6875L12.9999 11.6902L12.9794 11.6931L12.959 11.696L12.9385 11.699L12.918 11.7022L12.8975 11.7053L12.877 11.7086L12.8566 11.712L12.8361 11.7154L12.8156 11.719L12.7951 11.7226L12.7746 11.7263L12.7542 11.7302L12.7337 11.7341L12.7132 11.7381L12.6927 11.7421L12.6722 11.7464L12.6518 11.7506L12.6313 11.755L12.6108 11.7595L12.5903 11.7641L12.5698 11.7689L12.5493 11.7736L12.5289 11.7786L12.5084 11.7836L12.4879 11.7888L12.4674 11.7941L12.4469 11.7995L12.4265 11.805L12.406 11.8106L12.3855 11.8164L12.365 11.8222L12.3445 11.8282L12.324 11.8343L12.3036 11.8406L12.2831 11.847L12.2626 11.8536C12.2558 11.8558 12.2489 11.858 12.2421 11.8602L12.2216 11.8671C12.2148 11.8694 12.2079 11.8716 12.2012 11.874L12.1807 11.8812L12.1602 11.8884C12.1533 11.8908 12.1465 11.8934 12.1397 11.8959C12.1329 11.8984 12.126 11.9008 12.1192 11.9034L12.0987 11.9112C12.0919 11.9138 12.085 11.9164 12.0783 11.919L12.0578 11.9272L12.0373 11.9354L12.0168 11.9439L11.9963 11.9525L11.9759 11.9612L11.9554 11.9702L11.9349 11.9794L11.9144 11.9888L11.894 11.9983C11.8871 12.0016 11.8803 12.0049 11.8735 12.0082L11.853 12.0182L11.8325 12.0284L11.812 12.0389C11.8052 12.0424 11.7983 12.0459 11.7915 12.0495C11.7847 12.0531 11.7779 12.0568 11.7711 12.0605L11.7506 12.0717L11.7301 12.0831C11.7232 12.087 11.7164 12.0909 11.7096 12.0948C11.7028 12.0988 11.6959 12.1027 11.6891 12.1067C11.6823 12.1108 11.6755 12.1149 11.6687 12.119C11.6618 12.1231 11.655 12.1273 11.6482 12.1315C11.6413 12.1358 11.6345 12.14 11.6277 12.1443C11.6208 12.1487 11.614 12.1531 11.6072 12.1575L11.5867 12.1709C11.5799 12.1755 11.573 12.18 11.5662 12.1847L11.5458 12.1988C11.5389 12.2036 11.5321 12.2084 11.5253 12.2133C11.5184 12.2182 11.5116 12.2231 11.5048 12.2281C11.498 12.2332 11.4911 12.2382 11.4843 12.2432C11.4774 12.2484 11.4706 12.2537 11.4638 12.2589C11.457 12.2643 11.4501 12.2696 11.4434 12.275C11.4365 12.2804 11.4296 12.2859 11.4229 12.2914V12.2914V12.2914V12.2914V12.2914Z" fill="#E94B35"/>
</svg>
