<svg width="28" height="28" viewBox="0 0 28 28" fill="none" xmlns="http://www.w3.org/2000/svg">
<path d="M4 0.5H24C25.933 0.5 27.5 2.067 27.5 4V24C27.5 25.933 25.933 27.5 24 27.5H4C2.067 27.5 0.5 25.933 0.5 24V4C0.5 2.067 2.067 0.5 4 0.5Z" fill="white"/>
<path d="M4 0.5H24C25.933 0.5 27.5 2.067 27.5 4V24C27.5 25.933 25.933 27.5 24 27.5H4C2.067 27.5 0.5 25.933 0.5 24V4C0.5 2.067 2.067 0.5 4 0.5Z" stroke="#EBECEF"/>
<path d="M7.61255 7.38892H12.8541C13.5857 7.38892 14.0408 8.00181 13.8701 8.75625L11.4298 19.5237C11.2576 20.2755 10.525 20.8889 9.79286 20.8889H4.55186C3.82122 20.8889 3.36512 20.2755 3.5358 19.5237L5.97712 8.75625C6.14781 8.00181 6.87999 7.38892 7.61255 7.38892Z" fill="#E21836"/>
<path d="M12.4169 7.38892H18.4445C19.1761 7.38892 18.8462 8.00181 18.6741 8.75625L16.2342 19.5237C16.063 20.2755 16.1164 20.8889 15.3833 20.8889H9.35571C8.62264 20.8889 8.16897 20.2755 8.34119 19.5237L10.781 8.75625C10.9542 8.00181 11.6849 7.38892 12.4169 7.38892Z" fill="#00447C"/>
<path d="M18.2057 7.38892H23.4472C24.1799 7.38892 24.635 8.00181 24.4629 8.75625L22.023 19.5237C21.8508 20.2755 21.1177 20.8889 20.3851 20.8889H15.1461C14.413 20.8889 13.9583 20.2755 14.13 19.5237L16.5703 8.75625C16.741 8.00181 17.4727 7.38892 18.2057 7.38892Z" fill="#007B84"/>
<path fill-rule="evenodd" clip-rule="evenodd" d="M16.8689 14.0815C16.8883 13.984 17.0037 13.4066 17.0047 13.4066C17.0047 13.4066 17.103 12.9829 17.109 12.9675C17.109 12.9675 17.1399 12.9234 17.1708 12.906H17.2163C17.6454 12.906 18.13 12.906 18.5098 12.6188C18.7683 12.4219 18.945 12.131 19.0238 11.7776C19.0442 11.6909 19.0593 11.5879 19.0593 11.4848C19.0593 11.3494 19.0329 11.2155 18.9565 11.1109C18.7628 10.8324 18.3771 10.8273 17.9319 10.8252L17.7124 10.8273C17.1424 10.8345 16.9139 10.8324 16.82 10.8206C16.8121 10.8632 16.7971 10.9391 16.7971 10.9391C16.7971 10.9391 16.593 11.9115 16.593 11.9131L16.0814 14.0779C16.579 14.0717 16.7831 14.0717 16.8689 14.0815ZM8.98139 10.8394C8.44238 10.845 8.28319 10.8394 8.23234 10.827C8.2128 10.9225 7.84907 12.6468 7.84805 12.6482C7.76973 12.9971 7.71275 13.2458 7.5192 13.4063C7.40933 13.4997 7.28106 13.5447 7.13235 13.5447C6.89332 13.5447 6.75406 13.4228 6.73068 13.1914L6.72621 13.112C6.72621 13.112 6.79903 12.6447 6.79903 12.6421C6.79903 12.6421 7.18077 11.0707 7.24912 10.863C7.2527 10.8512 7.25372 10.845 7.25462 10.8394C6.51158 10.8461 6.37986 10.8394 6.37079 10.827C6.36581 10.8439 6.34741 10.9414 6.34741 10.9414L5.95762 12.7124L5.92415 12.8626L5.85938 13.354C5.85938 13.4997 5.88723 13.6187 5.94267 13.7192C6.12026 14.0382 6.62681 14.0859 6.91338 14.0859C7.28259 14.0859 7.62895 14.0053 7.863 13.8581C8.26881 13.6117 8.37532 13.2267 8.47004 12.8843L8.47036 12.8831L8.51431 12.7073C8.51431 12.7073 8.90754 11.0753 8.97436 10.863L8.97519 10.8591C8.97718 10.8498 8.97834 10.8443 8.98139 10.8394ZM10.3192 12.1561C10.2244 12.1561 10.0512 12.1797 9.89557 12.2581C9.85212 12.281 9.81048 12.3067 9.76792 12.3329L9.72936 12.3565L9.78021 12.1679L9.75235 12.1361C9.44394 12.2003 9.35927 12.2125 9.10067 12.2498L9.04368 12.2581L9.01813 12.2755C8.98274 12.5771 8.95131 12.8039 8.82011 13.3967C8.77015 13.6152 8.71828 13.8357 8.66629 14.0537L8.68034 14.0814C8.99271 14.0645 9.0875 14.0645 9.35899 14.0691L9.38096 14.0445C9.39023 13.9957 9.39734 13.9569 9.40425 13.9192L9.40428 13.919L9.40429 13.919L9.40429 13.919L9.40429 13.919C9.42308 13.8164 9.4405 13.7213 9.49633 13.4526C9.50395 13.4156 9.51332 13.3692 9.52371 13.3178L9.52372 13.3177C9.5623 13.1267 9.61493 12.8662 9.64402 12.7587C9.71186 12.7264 9.7788 12.6946 9.84268 12.6946C9.99135 12.6946 9.97707 12.8249 9.97086 12.8815L9.97044 12.8854C9.96392 12.9767 9.90847 13.2747 9.85162 13.5306L9.81368 13.6958C9.79996 13.7591 9.78555 13.8214 9.77117 13.8837L9.77117 13.8837C9.75783 13.9414 9.74451 13.9991 9.73179 14.0572L9.74328 14.0814C10.0512 14.0645 10.1451 14.0645 10.408 14.0691L10.4389 14.0445C10.4865 13.7609 10.5004 13.685 10.5847 13.2721L10.6271 13.0824C10.7095 12.711 10.7509 12.5228 10.6886 12.3694C10.6226 12.1975 10.4645 12.1561 10.3192 12.1561ZM11.7598 12.5555L11.814 12.5447L11.82 12.559L11.8245 12.5745C11.8112 12.6315 11.7976 12.6885 11.784 12.7457C11.7669 12.8172 11.7498 12.8889 11.7331 12.9612C11.7197 13.0222 11.7057 13.0825 11.6919 13.1425L11.6919 13.1425C11.676 13.2112 11.6602 13.2795 11.6454 13.3479C11.6217 13.4578 11.6036 13.54 11.5896 13.6038L11.5895 13.6039L11.5894 13.6044L11.5893 13.6051L11.5893 13.6052L11.5892 13.6053C11.5686 13.699 11.5568 13.7528 11.5485 13.7967C11.54 13.8383 11.5354 13.8686 11.528 13.9174C11.5231 13.9492 11.5171 13.9888 11.508 14.0444L11.4931 14.0573L11.4792 14.069C11.4278 14.0687 11.3823 14.0681 11.3409 14.0676C11.254 14.0664 11.1851 14.0656 11.1179 14.068C11.027 14.0689 10.9384 14.0732 10.811 14.0795L10.7739 14.0813L10.766 14.068L10.7566 14.0536C10.7919 13.9165 10.8132 13.8579 10.8313 13.8078L10.8388 13.7869C10.8593 13.731 10.8778 13.6756 10.9137 13.5166C10.9601 13.3089 10.9886 13.1643 11.0071 13.0371C11.0232 12.9465 11.0337 12.8659 11.0446 12.7813C11.0486 12.7511 11.0526 12.7203 11.0569 12.6884L11.0684 12.679L11.0809 12.6674C11.2391 12.6448 11.3394 12.6294 11.4422 12.6125C11.534 12.6002 11.6263 12.5819 11.7598 12.5555ZM11.8176 12.0209C11.6689 11.9307 11.4079 11.9593 11.2322 12.0839C11.057 12.206 11.0371 12.3794 11.1853 12.4707C11.3315 12.5584 11.5935 12.5323 11.7676 12.4067C11.9424 12.2819 11.9643 12.1102 11.8176 12.0209ZM13.5582 13.772C13.326 14.0249 13.0176 14.1101 12.7167 14.1101C12.5989 14.1101 12.4163 14.0948 12.2895 14.0388C11.8788 13.868 11.9442 13.409 12.001 13.154C12.0574 12.9038 12.1508 12.6428 12.3529 12.4504C12.6343 12.1837 12.9946 12.1684 13.1459 12.1684C13.3974 12.1684 13.6399 12.2263 13.7771 12.4068C13.8675 12.5252 13.9394 12.7197 13.847 13.1362C13.8187 13.2618 13.7368 13.567 13.5582 13.772ZM12.6937 13.1723C12.7631 12.8569 12.845 12.5922 13.054 12.5922C13.2178 12.5922 13.2297 12.7891 13.1568 13.1056C13.1438 13.1758 13.084 13.437 13.0031 13.5482C12.9467 13.6302 12.8799 13.68 12.806 13.68C12.784 13.68 12.6533 13.68 12.6513 13.4806C12.6503 13.3821 12.6698 13.2815 12.6937 13.1723ZM14.6226 14.0446L14.5991 14.0692C14.3281 14.0646 14.2347 14.0646 13.9219 14.0815L13.9079 14.0538C13.9598 13.8359 14.0117 13.6153 14.0616 13.3968C14.1928 12.8039 14.2229 12.5773 14.2598 12.2757L14.2832 12.2582L14.3474 12.2489C14.6002 12.2124 14.6875 12.1998 14.9928 12.1361L15.0183 12.168L14.9709 12.3567C15.0253 12.3223 15.0807 12.288 15.1361 12.2582C15.2908 12.1797 15.4649 12.1562 15.5598 12.1562C15.7031 12.1562 15.8622 12.1977 15.9301 12.3695C15.9914 12.5229 15.9495 12.711 15.8667 13.0824L15.8253 13.2722C15.7384 13.685 15.7259 13.7609 15.6795 14.0446L15.6476 14.0692C15.3831 14.0646 15.2928 14.0646 14.9839 14.0815L14.9724 14.0574C14.987 13.9905 15.0027 13.9244 15.0184 13.8581C15.0311 13.8043 15.0439 13.7504 15.0562 13.6958L15.0921 13.5306C15.15 13.2747 15.2054 12.9768 15.2109 12.8854L15.2113 12.882C15.2176 12.8255 15.2322 12.6946 15.0842 12.6946C15.0191 12.6946 14.954 12.7257 14.8869 12.7577L14.8845 12.7588C14.8579 12.8601 14.8089 13.0973 14.7703 13.2842L14.7703 13.2844C14.7569 13.3491 14.7448 13.4079 14.7353 13.4527C14.678 13.7379 14.6619 13.8276 14.6419 13.9382L14.6419 13.9382L14.6419 13.9383L14.6419 13.9384L14.6419 13.9384L14.6226 14.0446ZM17.4635 11.3872C17.4646 11.3835 17.2475 12.3539 17.2475 12.3539L17.2386 12.4026H17.3563C17.5384 12.4026 17.7151 12.3964 17.8593 12.3221C18.0345 12.2344 18.1708 12.0528 18.2172 11.8369C18.268 11.6005 18.1952 11.4195 18.0185 11.3492C18.008 11.3482 17.5604 11.3086 17.5604 11.3086L17.4736 11.2995L17.4706 11.3374L17.4635 11.3872ZM18.5986 13.1906C18.5413 13.4419 18.4754 13.9009 18.8841 14.0645C19.0144 14.1215 19.1311 14.1384 19.2498 14.1323C19.3752 14.1253 19.4913 14.0607 19.5989 13.9678L19.5697 14.0825L19.5883 14.1071C19.8822 14.0943 19.9734 14.0943 20.2919 14.0968L20.3208 14.0742L20.3262 14.0417C20.3708 13.7718 20.4158 13.4997 20.532 12.9829C20.5909 12.7254 20.6497 12.4704 20.7101 12.214L20.7006 12.1858C20.3718 12.2484 20.2839 12.2618 19.9676 12.3079L19.9436 12.328L19.934 12.4043C19.8848 12.3226 19.8135 12.2529 19.7035 12.2094C19.5628 12.1526 19.2325 12.2258 18.9484 12.4916C18.7489 12.6813 18.6531 12.9413 18.5986 13.1906ZM19.6502 12.634C19.4406 12.634 19.3598 12.896 19.2894 13.2058C19.265 13.3161 19.2454 13.4165 19.2465 13.5141C19.2509 13.71 19.3802 13.71 19.4012 13.71C19.475 13.71 19.6033 13.6612 19.6572 13.5827C19.6859 13.5435 19.7121 13.4845 19.7346 13.422L19.7515 13.3526C19.7681 13.2844 19.7848 13.2161 19.8004 13.1474C19.8149 13.0837 19.827 13.0273 19.8382 12.9739C19.8524 12.7596 19.7827 12.634 19.6502 12.634ZM22.8961 12.1834L22.8707 12.1536C22.5453 12.2213 22.4864 12.2321 22.1875 12.2736L22.1655 12.2962L22.1642 12.3017C22.1636 12.3045 22.1629 12.3076 22.162 12.3106L22.161 12.3055C22.0398 12.5929 21.9865 12.69 21.9339 12.786C21.8899 12.8662 21.8463 12.9456 21.7638 13.1348C21.7633 13.1251 21.763 13.1172 21.7628 13.1092C21.7625 13.1016 21.7623 13.0937 21.7618 13.0839L21.7164 12.1834L21.6879 12.1536C21.595 12.172 21.5268 12.1863 21.4703 12.1981C21.3199 12.2295 21.2532 12.2434 21.0242 12.2736L20.9997 12.2962C20.9975 12.3031 20.9967 12.3106 20.9959 12.3184C20.9954 12.3227 20.9949 12.3271 20.9942 12.3316L20.9963 12.3362C21.0273 12.4992 21.028 12.505 21.0462 12.66C21.0511 12.7016 21.0573 12.7539 21.0656 12.8229C21.075 12.9046 21.086 12.9865 21.097 13.0682L21.097 13.0682L21.097 13.0683L21.097 13.0683L21.097 13.0684L21.097 13.0684L21.097 13.0685L21.097 13.0685L21.097 13.0685L21.097 13.0686L21.097 13.0686L21.097 13.0686C21.1075 13.1468 21.118 13.2248 21.127 13.302L21.141 13.4208C21.1641 13.6155 21.1815 13.7617 21.2133 14.1006C21.1246 14.2511 21.0641 14.3625 21.0089 14.4643L21.0089 14.4644L21.0088 14.4644L21.0088 14.4645L21.0088 14.4645L21.0088 14.4645L21.0088 14.4646L21.0087 14.4646L21.0087 14.4646C20.9317 14.6065 20.8649 14.7297 20.7457 14.914L20.7471 14.9171L20.603 15.1513C20.5865 15.176 20.5716 15.193 20.5506 15.2002C20.5276 15.2119 20.4977 15.214 20.4562 15.214H20.3764L20.2577 15.6197L20.6649 15.6269C20.9039 15.6259 21.0541 15.511 21.135 15.3566L21.391 14.9057H21.3869L21.4139 14.8739C21.5861 14.4929 22.8961 12.1834 22.8961 12.1834ZM18.4261 17.5114H18.5989L18.4651 17.96H18.2944L18.254 18.0985H17.6457L17.687 17.96H16.4524L16.5757 17.5446H16.7014L17.3493 15.3383L17.4784 14.8936H18.0983L18.0334 15.1177C18.0334 15.1177 18.1986 14.9956 18.3553 14.9541C18.4849 14.9186 19.1247 14.9021 19.3389 14.8975V14.8962H20.0016L20.0081 15.1495C20.0037 15.1925 20.0396 15.2126 20.117 15.2126H20.2516L20.1285 15.6311H19.7706C19.4612 15.6536 19.3434 15.5172 19.3513 15.3633L19.3448 15.1144L19.2775 15.3383H19.0654L18.4261 17.5114ZM18.0922 15.7803C17.993 15.8085 17.8082 15.8941 17.8082 15.8941L17.9725 15.3387H18.465L18.3462 15.7434C18.3462 15.7434 18.194 15.7526 18.0922 15.7803ZM17.8448 16.6168C17.9466 16.5932 18.1013 16.5732 18.1013 16.5732L18.2211 16.1685H17.7261L17.5564 16.7465C17.5564 16.7465 17.7445 16.648 17.8448 16.6168ZM17.8256 17.5169H17.3316L17.4748 17.0291H17.9673L17.8256 17.5169ZM19.7276 16.1689H19.0154L19.1367 15.7489H21.1185L20.9952 16.1689H20.3304L20.2266 16.5095H20.8933L20.7826 16.8819H20.0624L19.9341 17.0388H20.2266L20.298 17.508C20.3001 17.5202 20.3016 17.5313 20.3031 17.5414V17.5414L20.3031 17.5414C20.3071 17.5701 20.3099 17.5907 20.321 17.6054C20.3359 17.6218 20.4237 17.6306 20.4747 17.6306H20.5635L20.4283 18.087H20.2032C20.1727 18.087 20.1286 18.0851 20.0692 18.0825L20.0692 18.0825L20.045 18.0814C19.9953 18.0769 19.9563 18.0533 19.9208 18.0318C19.9085 18.0244 19.8966 18.0172 19.8848 18.0111C19.8433 17.9912 19.782 17.9398 19.767 17.8521L19.6966 17.3839L19.3688 17.8451C19.2649 17.9912 19.1243 18.1025 18.8861 18.1025H18.428L18.5484 17.6947H18.7235C18.7744 17.6947 18.8183 17.6742 18.8518 17.6568C18.8851 17.6425 18.9151 17.6245 18.9486 17.5737L19.4267 16.8819H18.7953L18.9036 16.5095H19.6252L19.7276 16.1689ZM13.0008 17.6116L13.167 17.0434H13.8501L13.975 16.6207H13.2912L13.3956 16.2709H14.0637L14.1875 15.8617H12.5157L12.3945 16.2709H12.7743L12.673 16.6207H12.2921L12.1659 17.0506H12.5456L12.3241 17.8024C12.2989 17.8862 12.3261 17.9263 12.3519 17.9645L12.3519 17.9645C12.3568 17.9717 12.3616 17.9788 12.366 17.9861C12.3945 18.0311 12.4233 18.0609 12.4882 18.0778C12.5552 18.0932 12.601 18.1024 12.6634 18.1024H13.4335L13.5707 17.6342L13.2294 17.6824C13.1634 17.6824 12.9809 17.6742 13.0008 17.6116ZM12.9059 15.2129L13.079 14.8914H13.7597L13.64 15.1252H14.3257L14.2014 15.5535H13.2647L13.1633 15.6437C13.1375 15.6693 13.1217 15.6737 13.1015 15.6793C13.0874 15.6833 13.071 15.6878 13.0476 15.7007C12.9947 15.7279 12.8839 15.7822 12.7397 15.7822H12.4397L12.5605 15.3709H12.6508C12.7267 15.3709 12.779 15.3638 12.8055 15.3468C12.8355 15.3267 12.8689 15.2831 12.9059 15.2129ZM14.4621 17.6196C14.4461 17.596 14.4576 17.5544 14.482 17.4677L14.7381 16.5968H15.6488C15.7816 16.5949 15.8774 16.5933 15.9397 16.5887C16.0067 16.5815 16.0795 16.5569 16.1588 16.5128C16.2407 16.4666 16.2826 16.4179 16.318 16.3619C16.3575 16.3061 16.4209 16.184 16.4753 15.9957L16.7971 14.8936L15.852 14.8993C15.852 14.8993 15.5609 14.9434 15.4328 14.9921C15.3035 15.0465 15.1188 15.1982 15.1188 15.1982L15.2041 14.8961H14.6203L13.8029 17.6821C13.7739 17.7903 13.7544 17.8688 13.75 17.916C13.7486 17.9609 13.7983 18.0054 13.8385 18.0413L13.8537 18.055C13.8921 18.0848 13.9448 18.0874 13.9992 18.0901L13.9992 18.0901L13.9992 18.0901L13.9993 18.0901C14.0142 18.0909 14.0294 18.0916 14.0443 18.093C14.1173 18.0986 14.221 18.1021 14.3642 18.1021H14.8129L14.9506 17.6242L14.549 17.6632C14.506 17.6632 14.475 17.6396 14.4621 17.6196ZM15.86 16.009H14.9034L14.8445 16.207H15.6728C15.7384 16.1991 15.7691 16.203 15.7847 16.205C15.7923 16.2059 15.7964 16.2064 15.7992 16.2049L15.86 16.009ZM15.0947 15.3521H16.0594L15.99 15.588C15.99 15.588 15.5354 15.5834 15.4625 15.5972C15.1421 15.6542 14.955 15.8301 14.955 15.8301L15.0947 15.3521ZM15.7824 16.9213C15.7999 16.9079 15.8124 16.8901 15.8203 16.8608L15.8772 16.6741H16.3229L16.2685 16.9388C16.2455 17.0219 16.2256 17.0833 16.1646 17.1368C16.1007 17.1926 16.0259 17.2511 15.8507 17.2511L15.5263 17.2649L15.5239 17.5639C15.521 17.6313 15.5346 17.6395 15.5468 17.6469C15.5498 17.6487 15.5527 17.6505 15.5553 17.6532C15.5699 17.6681 15.583 17.6739 15.5966 17.6798L15.5977 17.6803L15.7006 17.6742L16.0099 17.6567L15.8816 18.0933H15.5263C15.2778 18.0933 15.0932 18.0871 15.0333 18.0384C14.9734 17.9994 14.9655 17.9507 14.9664 17.8665L14.9894 16.7002H15.5564L15.5483 16.9388H15.6846C15.7315 16.9388 15.7629 16.9342 15.7824 16.9213Z" fill="#FEFEFE"/>
</svg>
