<svg width="28" height="28" viewBox="0 0 28 28" fill="none" xmlns="http://www.w3.org/2000/svg">
<path d="M4 0.5H24C25.933 0.5 27.5 2.067 27.5 4V24C27.5 25.933 25.933 27.5 24 27.5H4C2.067 27.5 0.5 25.933 0.5 24V4C0.5 2.067 2.067 0.5 4 0.5Z" fill="white"/>
<path d="M4 0.5H24C25.933 0.5 27.5 2.067 27.5 4V24C27.5 25.933 25.933 27.5 24 27.5H4C2.067 27.5 0.5 25.933 0.5 24V4C0.5 2.067 2.067 0.5 4 0.5Z" stroke="#EBECEF"/>
<rect x="11.5586" y="9.41968" width="5.01235" height="8.7716" fill="#FF5F00"/>
<path d="M11.8519 13.8056C11.8519 12.0043 12.7239 10.4066 14.0642 9.37284C13.0791 8.62099 11.8357 8.16675 10.4793 8.16675C7.26585 8.16675 4.66602 10.6886 4.66602 13.8056C4.66602 16.9227 7.26585 19.4445 10.4793 19.4445C11.8357 19.4445 13.0791 18.9903 14.0642 18.2384C12.7239 17.2203 11.8519 15.6069 11.8519 13.8056Z" fill="#EB001B"/>
<path d="M23.4626 13.8056C23.4626 16.9227 20.8628 19.4445 17.6493 19.4445C16.2929 19.4445 15.0495 18.9903 14.0645 18.2384C15.4209 17.2046 16.2767 15.6069 16.2767 13.8056C16.2767 12.0043 15.4047 10.4066 14.0645 9.37284C15.0495 8.62099 16.2929 8.16675 17.6493 8.16675C20.8628 8.16675 23.4626 10.7042 23.4626 13.8056Z" fill="#F79E1B"/>
</svg>
