<svg width="28" height="28" viewBox="0 0 28 28" fill="none" xmlns="http://www.w3.org/2000/svg">
<path d="M4 0.5H24C25.933 0.5 27.5 2.067 27.5 4V24C27.5 25.933 25.933 27.5 24 27.5H4C2.067 27.5 0.5 25.933 0.5 24V4C0.5 2.067 2.067 0.5 4 0.5Z" fill="white"/>
<path d="M4 0.5H24C25.933 0.5 27.5 2.067 27.5 4V24C27.5 25.933 25.933 27.5 24 27.5H4C2.067 27.5 0.5 25.933 0.5 24V4C0.5 2.067 2.067 0.5 4 0.5Z" stroke="#EBECEF"/>
<path fill-rule="evenodd" clip-rule="evenodd" d="M18.8569 10.7949L18.6051 12.2472C17.8496 11.8321 16.1302 11.7339 16.1302 12.4983C16.1302 12.8021 16.5192 13.011 16.9881 13.2628C17.6992 13.6447 18.594 14.1252 18.594 15.1848C18.594 16.8775 16.7763 17.5 15.5717 17.5C14.3669 17.5 13.5787 17.118 13.5787 17.118L13.8414 15.5997C14.564 16.1784 16.7542 16.3423 16.7542 15.425C16.7542 15.0396 16.3231 14.8123 15.8233 14.5487C15.1334 14.1848 14.3124 13.7519 14.3124 12.7387C14.3124 10.882 16.3928 10.5 17.2689 10.5C18.0794 10.5 18.8569 10.7949 18.8569 10.7949ZM7.55671 15.2723L9.24003 10.6212H11.1401L8.33125 17.3837H6.49176L4.9579 11.5088C3.96242 10.9121 3.11133 10.7355 3.11133 10.7355L3.1438 10.6212H5.92617C6.69201 10.6212 6.76366 11.2302 6.76366 11.2302L7.3579 14.2711L7.35772 14.2707L7.55671 15.2723ZM10.7253 17.3837H12.4908L13.5944 10.6212H11.8287L10.7253 17.3837ZM21.1837 14.9917L22.1116 12.4608L22.6334 14.9917H21.1837ZM23.1266 17.3837H24.7477L23.3343 10.6212H21.9149C21.2594 10.6212 21.0999 11.1251 21.0999 11.1251L18.467 17.3837H20.3071L20.6753 16.3794H22.9197L23.1266 17.3837Z" fill="#112260"/>
<path fill-rule="evenodd" clip-rule="evenodd" d="M7.37755 14.3422L6.78056 11.2437C6.78056 11.2437 6.70858 10.623 5.93919 10.623H3.14395L3.11133 10.7395C3.11133 10.7395 4.45492 11.0214 5.74384 12.0765C6.97573 13.0851 7.37755 14.3422 7.37755 14.3422Z" fill="#EE9F3F"/>
</svg>
